<?xml version="1.0" encoding="UTF-8"?>
<!DOCTYPE svg PUBLIC "-//W3C//DTD SVG 1.1//EN" "http://www.w3.org/Graphics/SVG/1.1/DTD/svg11.dtd">
<!-- Creator: CorelDRAW 2021.5 (Evaluation Version) -->
<svg xmlns="http://www.w3.org/2000/svg" xml:space="preserve" width="11in" height="8.5in" version="1.1" style="shape-rendering:geometricPrecision; text-rendering:geometricPrecision; image-rendering:optimizeQuality; fill-rule:evenodd; clip-rule:evenodd"
viewBox="0 0 11000 8500"
 xmlns:xlink="http://www.w3.org/1999/xlink"
 xmlns:xodm="http://www.corel.com/coreldraw/odm/2003">
 <defs>
  <style type="text/css">
   <![CDATA[
    .fil0 {fill:white;fill-rule:nonzero}
   ]]>
  </style>
 </defs>
 <g id="Layer_x0020_1">
  <metadata id="CorelCorpID_0Corel-Layer"/>
  <g id="_3117209539856">
   <path class="fil0" d="M6645.28 1153.41c-143.52,24.5 -283.54,119.01 -224.04,154.02 24.5,14 35.01,38.51 21.01,49.01 -10.5,10.5 -45.5,-3.5 -77.01,-38.51 -52.51,-52.51 -63.01,-52.51 -147.02,3.5 -49.01,31.5 -98.02,80.51 -108.52,108.52 -31.5,80.51 -73.5,56 -115.52,-70.02 -35,-115.52 -42,-115.52 -203.02,-101.52 -91.01,10.5 -252.04,59.5 -357.05,112.02 -182.02,94.51 -192.53,105.01 -203.02,245.03 -10.5,143.52 -10.5,147.02 -73.51,70.02 -56,-70.02 -77.01,-73.51 -399.06,-49.01l-339.54 24.5 -87.51 147.02c-49.01,77.01 -87.51,126.02 -87.51,105.01 0,-21.01 -73.51,-59.51 -164.53,-84.02 -94.51,-21 -189.02,-49.01 -210.03,-56 -24.5,-7 -84.01,66.51 -133.02,164.53l-91.01 175.02 73.51 122.52c63.01,101.52 66.51,119.01 21,119.01 -42,0 -56,35.01 -56,122.52 0,108.51 -14,129.52 -164.53,199.52 -241.54,115.52 -280.04,217.03 -189.03,490.07 42,119.01 66.51,220.53 63.01,227.54 -7,3.5 -101.52,-49.01 -213.52,-115.52 -108.51,-70.02 -206.53,-122.52 -210.03,-115.52 -105.01,119.01 -304.54,455.06 -322.05,546.07 -31.5,168.02 63.01,360.55 231.03,465.56 73.51,45.5 129.52,94.51 122.52,108.51 -10.5,14 -119.01,35.01 -241.54,49.01 -245.03,24.5 -266.04,45.51 -266.04,301.04 0,108.51 24.5,147.02 161.02,259.04 87.51,70.01 164.53,122.52 175.02,112.02 10.5,-7 -49.01,-66.51 -126.02,-129.52 -129.52,-101.52 -140.02,-119.01 -84.02,-150.52 49.01,-28 84.02,-10.5 178.53,94.51 105.01,112.02 115.52,143.52 94.51,259.04 -35,203.03 -143.52,385.06 -262.53,448.07 -133.02,66.51 -115.52,98.02 28,42 101.52,-38.51 115.52,-28 392.05,199.52 259.04,213.53 287.04,248.53 269.54,336.05 -14,80.51 10.5,122.51 161.02,273.04 129.52,129.52 168.02,192.53 143.52,217.03 -56,56 -91.01,28 -637.09,-497.06 -493.57,-472.56 -493.57,-472.56 -493.57,-630.09 0,-157.52 3.5,-164.53 178.53,-255.54 98.02,-56 168.02,-105.01 157.52,-115.52 -7,-10.5 -94.51,28 -192.53,84.02l-178.53 98.02 0 196.03 0 192.53 406.05 381.55 406.06 378.05 -133.02 112.02 -133.02 112.02 73.51 171.52c73.51,164.53 80.51,171.52 231.03,182.02 136.52,10.5 161.02,24.5 210.03,133.02 35.01,66.51 59.51,143.52 59.51,168.02 0,28 84.01,70.01 203.02,101.52 689.59,189.02 1015.14,262.53 1102.65,245.03 112.02,-21.01 112.02,-24.5 38.51,147.02 -49.01,119.01 -49.01,136.52 3.5,192.53 28,31.5 105.01,87.51 168.02,122.52l115.52 59.5 269.54 -143.52c178.53,-94.51 273.04,-129.52 290.54,-105.01 28,49.01 976.63,14 1536.7,-59.5 304.55,-38.51 395.56,-63.01 437.56,-119.01 28,-38.51 105.01,-77.01 164.52,-91.01 164.53,-31.5 210.04,-101.52 133.02,-189.02 -52.51,-56 -108.51,-70.02 -315.04,-70.02 -182.02,0 -266.04,-14 -297.54,-52.51 -24.5,-28 -63.01,-52.51 -91.01,-52.51 -28,0 -49.01,-52.51 -56,-129.52 -7,-105.01 -28,-133.02 -108.51,-161.02 -112.02,-35.01 -217.03,-7.01 -178.53,49.01 14,28 31.5,24.5 52.51,-7.01 21.01,-35.01 45.51,-35.01 122.52,0 70.01,31.5 84.02,52.51 56,80.51 -24.5,24.5 -42,59.51 -42,77.01 0,21 17.5,14 35.01,-14 28,-42 35.01,-38.51 35.01,24.5 0,98.02 -38.51,101.52 -119.01,14 -59.51,-63.01 -59.51,-70.01 3.5,-108.51 56,-31.5 52.51,-35.01 -24.5,-14 -49.01,10.5 -108.52,38.51 -133.02,59.5 -38.51,31.5 -45.5,24.5 -38.51,-28 3.5,-38.51 -3.5,-150.52 -17.5,-252.04l-28 -182.02 -161.02 -21.01c-91.01,-10.5 -192.53,-28 -224.03,-31.5 -35.01,-7 -80.51,10.5 -101.52,35.01 -24.5,28 -63.01,45.5 -91.01,35.01 -24.5,-10.5 -84.02,-3.5 -129.52,14 -115.52,42 -119.01,17.5 -101.52,-420.05l17.5 -367.56 -217.03 -63.01 -220.53 -66.51 24.5 -213.52c10.5,-119.01 31.5,-406.05 42,-637.09l24.5 -423.56 -91.01 -38.51 -94.51 -42 73.5 -164.53c38.51,-91.01 63.01,-185.52 52.51,-213.52 -10.5,-24.5 84.02,-129.52 224.03,-245.03 147.02,-119.01 245.03,-227.54 245.03,-266.03 0,-35.01 24.5,-108.52 52.51,-157.52 56,-108.51 122.52,-413.06 94.52,-444.56 -10.5,-10.5 -49.01,-17.5 -84.02,-17.5 -77.01,0 -77.01,3.5 -14,-143.52 28,-66.51 178.53,-245.03 332.54,-399.06 206.53,-203.03 297.54,-322.05 336.05,-437.56 35,-101.52 98.02,-189.02 175.02,-245.03 108.51,-80.51 178.53,-178.53 80.51,-119.01 -24.5,14 -28,10.5 -14,-14 14,-21.01 42,-31.5 66.51,-21.01 24.5,7.01 94.51,-35.01 157.52,-101.52 108.51,-108.52 108.51,-119.01 56,-196.03 -52.51,-70.02 -80.51,-80.51 -227.54,-66.51 -94.51,10.5 -175.02,7 -178.53,-10.5 -14,-35 -231.03,-63.01 -357.04,-42l0.02 0.01zm245.04 66.51c66.51,31.5 171.52,49.01 241.54,42 66.51,-7.01 112.02,-3.5 94.51,10.5 -14,14 -210.03,182.02 -437.56,378.05 -364.05,311.54 -420.05,346.55 -465.56,301.04 -56,-52.51 -52.51,-59.51 427.06,-472.56 164.53,-143.52 252.04,-252.04 147.02,-189.03 -24.5,14 -28,10.5 -14,-14 59.51,-98.02 -31.5,-24.5 -231.03,185.52 -115.52,126.02 -220.53,220.53 -227.54,213.52 -14,-14 311.54,-507.57 332.55,-511.07 7,0 66.51,24.5 133.02,56l-0.02 0.02zm-231.03 10.5c0,21 -14,45.5 -35,56 -17.5,10.5 -35.01,-3.5 -35.01,-31.51 0,-31.5 17.5,-56 35.01,-56 21,0 35,14 35,31.5zm-105.02 84.01c0,42 -38.51,136.52 -87.51,210.03 -49.01,70.02 -80.51,147.02 -70.01,164.53 28,42 -150.52,157.52 -248.53,157.52 -73.51,3.5 -73.51,-3.5 35,-171.52 59.51,-94.51 133.02,-182.02 157.52,-189.02 28,-10.5 -3.5,59.5 -66.51,147.02 -59.51,91.01 -105.01,171.52 -98.02,182.02 31.5,28 315.04,-441.06 297.54,-490.07 -21.01,-52.51 3.5,-91.01 52.51,-91.01 14,0 28,35.01 28,80.51l0 -0.01zm822.61 17.5c0,31.5 -798.11,602.09 -843.61,602.09 -10.5,0 161.02,-150.52 378.05,-332.55 371.05,-308.04 465.56,-364.05 465.56,-269.54zm-1414.19 66.5c59.5,157.52 14,241.54 -203.03,357.04 -133.02,73.51 -245.03,108.51 -350.05,108.51 -136.52,0 -150.52,-7 -150.52,-84.01 0,-266.04 108.51,-388.55 385.06,-444.56 234.53,-45.5 280.04,-38.51 318.54,63.01l-0.01 0.01zm346.55 -70c-3.5,66.51 -66.51,122.51 -105.01,98.02 -35.01,-21.01 -31.5,-38.51 17.5,-77.01 77.01,-52.51 87.51,-56 87.51,-21zm560.07 -10.5c0,7 -28,35.01 -59.51,59.51 -56,45.5 -59.5,42 -14,-14 45.5,-56 73.51,-73.5 73.51,-45.5zm-465.56 105.01c0,28 -21.01,42 -49.01,31.5 -24.5,-10.5 -45.5,-31.5 -45.5,-49.01 0,-17.5 21,-31.5 45.5,-31.5 28,0 49.01,21 49.01,49.01zm-199.54 80.51c0,63.01 -168.02,364.05 -224.03,402.55 -94.51,66.51 -84.02,10.5 38.51,-217.03 133.02,-245.03 185.52,-297.54 185.52,-185.52zm777.11 241.53c-80.51,70.01 -140.02,140.02 -129.52,157.52 10.5,17.5 3.5,66.51 -21.01,108.51 -52.51,108.52 -493.57,553.08 -525.07,535.57 -14,-10.5 -59.51,70.01 -101.52,175.02 -77.01,185.52 -80.51,192.53 -129.52,122.52 -49.01,-66.51 -42,-84.02 77.01,-231.03 70.02,-84.02 143.52,-147.02 161.02,-136.52 17.5,14 31.5,3.5 31.5,-17.5 0,-70.02 325.54,-388.55 374.55,-371.05 28,14 38.51,3.5 28,-17.5 -14,-21 3.5,-66.51 38.51,-105.01 108.51,-122.52 14,-70.02 -143.52,77.01 -199.52,185.52 -248.53,220.53 -416.56,269.54 -175.02,49.01 -325.54,-17.5 -346.55,-157.52 -14,-94.51 -14,-94.51 -21,14 -3.5,101.52 -315.04,829.61 -343.05,805.11 -17.5,-21 315.04,-910.12 357.05,-952.13 49.01,-49.01 220.53,-122.51 280.04,-122.51 87.51,0 192.53,136.52 196.03,252.03 3.5,112.02 7,112.02 28,21.01 14,-73.51 105.01,-154.02 353.55,-322.05 367.56,-248.53 483.06,-294.04 252.04,-105.01l0.02 -0.01zm-1956.77 -70c42,14 45.51,42 21.01,129.52 -17.5,63.01 -84.02,423.56 -147.02,801.61l-115.52 689.59 -108.51 -532.07 -108.52 -532.07 227.54 -255.54c126.02,-140.02 220.53,-262.53 213.52,-273.04 -10.5,-7 -115.52,94.51 -238.03,231.03l-217.03 245.03 -189.02 0c-105.01,0 -189.03,-7 -189.03,-17.5 0,-14 234.53,-395.55 269.54,-434.05 7,-10.5 126.02,-28 266.03,-38.51 136.52,-14 255.54,-28 259.04,-31.5 3.5,0 28,7 56,17.5l0 0.01zm234.53 241.54c0,7 -31.5,31.5 -70.01,52.51 -66.51,35.01 -70.02,28 -70.02,-129.52l0 -168.02 70.02 115.52c38.51,63.01 70.01,119.01 70.01,129.52l0 -0.01zm455.07 322.04c-101.52,266.04 -220.53,605.59 -269.54,756.1 -49.01,150.52 -91.01,269.54 -98.02,262.53 -3.5,-7 49.01,-311.54 119.01,-682.59l126.02 -668.59 140.02 -87.51c77.01,-45.5 143.52,-80.51 150.52,-77.01 7.01,7 -70.01,227.54 -168.02,497.06l0.01 0.01zm-1620.73 -360.55c105.01,31.5 126.02,115.52 56,220.53 -45.5,70.01 -49.01,101.52 -17.5,154.02 38.51,59.51 31.5,66.51 -59.51,66.51 -80.51,0 -105.01,-17.5 -122.51,-91.01 -28,-108.52 -31.5,-101.52 98.02,-143.52 59.5,-17.5 112.02,-52.51 119.01,-80.51 10.5,-24.5 0,-35.01 -17.5,-24.5 -21.01,14 -63.01,-7.01 -98.02,-45.5 -35.01,-38.51 -80.51,-70.02 -101.52,-70.02 -21,3.5 7.01,38.51 59.51,84.02l101.52 80.51 -94.51 24.5c-112.02,28 -108.51,35.01 -133.02,-108.51 -17.5,-98.02 -14,-108.51 56,-101.52 42,7.01 112.02,21.01 154.02,35.01l0.02 0zm-234.53 126.02c0,80.51 -14,105.01 -70.01,105.01 -80.51,0 -87.51,-42 -28,-140.02 63.01,-98.02 98.02,-87.51 98.02,35.01zm1221.67 94.51c-3.5,112.02 14,322.05 35,465.56 31.5,192.53 31.5,329.04 0,525.07 -35,241.54 -49.01,276.54 -157.52,364.05 -77.01,63.01 -119.01,77.01 -119.01,45.51 0,-28 45.5,-276.54 105.01,-553.08 101.52,-483.06 136.52,-759.6 70.01,-556.58 -14,49.01 -28,66.51 -31.5,42 -3.5,-66.51 73.51,-532.07 91.01,-532.07 7,0 10.5,91.01 7,199.52l-0.01 0.01zm444.56 -105.01c-63.01,290.54 -231.03,1263.67 -231.03,1330.19 0,45.5 -21,80.51 -49.01,80.51 -35,0 -45.5,-35.01 -35,-133.02 14,-147.02 84.01,-1207.66 84.01,-1309.18 0,-49.01 28,-63.01 126.02,-63.01 119.01,0 122.51,7 105.01,94.51zm-280.04 105.01c-10.5,73.5 -28,227.54 -42,343.04l-28 210.03 -24.5 -280.04c-21,-231.03 -14,-290.54 28,-343.04 80.51,-84.02 87.5,-77.01 66.51,70.01l-0.01 -0.01zm-1351.18 70.01c0,17.5 10.5,63.01 21.01,108.52 28,101.52 -63.01,73.5 -143.52,-49.01 -52.51,-80.51 -52.51,-84.02 35.01,-84.02 49.01,0 87.51,10.5 87.51,24.5l0 0.01zm700.1 476.06c42,217.03 108.52,514.56 147.02,665.09 73.51,294.04 63.01,388.55 -17.5,196.03 -28,-66.51 -164.53,-374.55 -301.04,-686.09 -136.52,-311.54 -248.53,-570.58 -248.53,-577.57 0,-7 77.01,-3.5 171.52,0l168.02 14 80.51 388.55 0 -0.01zm1463.2 -273.03c21.01,17.5 -665.09,1067.64 -696.59,1067.64 -49.01,0 -38.51,-38.51 56,-203.03 49.01,-84.01 77.01,-171.52 63.01,-192.53 -10.5,-17.5 -7.01,-24.5 10.5,-14 21.01,10.5 119.01,-143.52 217.03,-346.55 168.02,-332.55 192.53,-367.55 262.53,-343.04 42,10.5 80.51,28 87.51,31.5l0.02 0zm70 199.52c-332.55,378.05 -465.56,514.57 -402.55,413.06 332.55,-525.07 437.56,-640.58 595.08,-661.59 17.5,-3.5 -70.01,108.51 -192.53,248.53zm-1967.26 -189.03c21,14 49.01,56 63.01,94.52 10.5,38.51 129.52,318.54 262.53,623.08 133.02,301.04 238.04,549.57 234.53,549.57 -7,0 -157.52,-220.53 -332.55,-490.07 -318.54,-483.06 -322.05,-490.07 -283.54,-616.08 56,-171.52 21,-189.02 -45.51,-21.01 -56,140.02 -238.03,322.05 -325.54,322.05 -31.5,0 -42,-31.5 -31.5,-98.02 7,-52.51 24.5,-154.02 35.01,-224.04 17.5,-122.51 28,-129.52 168.02,-143.52 80.51,-7 164.52,-14 182.02,-17.5 21,-3.5 52.51,7.01 73.5,21.01l0.01 0.01zm808.61 224.04c-10.5,24.5 -17.5,7 -17.5,-42 0,-49.01 7,-66.51 17.5,-45.5 7.01,24.5 7.01,66.51 0,87.51zm-1312.68 161.02c-10.5,80.51 49.01,196.03 273.04,546.07 154.02,248.53 276.53,455.06 269.54,462.06 -7,7.01 -185.52,-210.03 -399.06,-486.56l-385.06 -497.06 108.52 -59.5c143.52,-80.51 150.52,-77.01 133.02,35l0 -0.01zm1277.67 31.5c-10.5,35.01 -17.5,14 -17.5,-42 0,-59.5 7,-84.01 17.5,-63.01 7,24.5 7,73.51 0,105.01zm-521.57 490.06c192.53,294.04 357.04,511.07 364.05,486.57 7.01,-35.01 31.5,-35.01 112.02,-3.5l105.01 45.5 -147.02 24.5c-80.51,14 -147.02,42 -147.02,63.01 0,63.01 140.02,280.04 164.53,255.54 10.5,-10.5 -7,-59.51 -38.51,-105.01 -84.02,-129.52 -73.51,-143.52 122.51,-189.03 241.54,-56 234.53,-59.5 259.04,87.51 14,73.51 31.5,161.02 42,196.03 14,56 -10.5,59.51 -255.54,52.51l-269.54 -10.5 -420.05 -675.59c-406.06,-658.09 -416.56,-675.59 -353.56,-745.6 31.5,-38.51 73.51,-56 87.51,-42 14,17.5 182.02,266.04 374.55,560.07l0.02 0zm1445.69 24.51c-157.52,185.52 -276.54,353.55 -266.04,371.04 10.5,17.5 3.5,38.51 -10.5,49.01 -17.5,10.5 -49.01,-59.5 -70.01,-157.52l-42 -178.53 252.04 -290.54 255.54 -294.04 84.02 80.51 80.51 80.51 -283.54 339.54 -0.01 0.01zm-2030.28 84.01c224.03,283.54 427.06,511.07 448.07,504.07 24.5,-3.5 35,7 21,24.5 -10.5,21.01 -42,28 -70.01,14 -98.02,-35.01 -52.51,17.5 80.51,98.02 70.01,42 136.52,84.01 143.52,87.5 3.5,7.01 0,28 -14,49.01 -17.5,28 -70.02,-3.5 -157.52,-87.5l-133.02 -129.52 -164.53 73.5c-91.01,38.51 -178.53,63.01 -196.03,52.51 -59.5,-35.01 -731.6,-794.61 -717.59,-808.61 7,-7 238.03,129.52 514.56,308.04 539.07,343.04 675.59,413.06 500.57,252.03 -178.53,-157.52 -749.1,-843.61 -749.1,-896.12 0,-59.51 38.51,-101.52 66.51,-73.51 10.5,10.5 203.03,248.53 427.06,532.07l0 0.01zm241.54 -161.02c633.59,1025.64 630.09,1018.63 588.08,1067.64 -31.5,38.51 -49.01,21.01 -98.02,-84.01 -31.5,-73.51 -101.52,-154.02 -150.52,-182.02 -52.51,-28 -94.51,-63.01 -94.51,-80.51 0,-17.5 17.5,-21.01 38.51,-10.5 31.5,21.01 -105.01,-206.53 -441.06,-735.09 -196.03,-308.04 -203.02,-332.55 -129.52,-332.55 45.51,0 133.02,112.02 287.04,357.04l-0.01 0zm829.61 -280.04c-10.5,28 -21.01,17.5 -21.01,-21 -3.5,-38.51 7.01,-59.51 17.5,-45.51 10.5,10.5 14,42 3.5,66.51zm280.05 192.52c-10.5,35.01 -17.5,7 -17.5,-59.51 0,-66.51 7,-94.51 17.5,-63.01 7,35.01 7,91.01 0,122.52zm1067.64 28.01c-7.01,77.01 -24.5,157.52 -35.01,178.53 -14,24.5 -192.53,220.53 -399.06,437.56 -367.55,385.06 -493.57,469.06 -346.55,231.03 38.51,-66.51 73.51,-143.52 73.51,-168.02 0,-28 143.52,-192.53 318.55,-364.05 175.02,-175.03 332.54,-346.55 350.05,-385.06 21.01,-38.51 -91.01,59.51 -248.53,220.53 -339.54,346.55 -350.05,332.55 -35.01,-38.51 255.54,-297.54 339.54,-329.04 322.05,-112.02l0 0.01zm-2607.86 234.53c189.02,227.54 241.54,304.54 168.02,259.04 -56,-38.51 -154.02,-101.52 -217.03,-140.02 -77.01,-49.01 -133.02,-133.02 -178.53,-259.04 -38.51,-98.02 -63.01,-182.02 -59.51,-182.02 7.01,0 136.52,147.02 287.04,322.05l0 -0.01zm-574.07 -73.52c35.01,63.01 56,115.52 52.51,119.01 -7,3.5 -87.51,21.01 -178.53,31.5l-168.02 24.5 98.02 -140.02c52.51,-77.01 105.01,-140.02 115.52,-143.52 10.5,0 45.5,49.01 80.51,108.52l-0.01 0.01zm2079.28 38.51c-10.5,24.5 -17.5,7 -17.5,-42 0,-49.01 7,-66.51 17.5,-45.5 7,24.5 7,66.51 0,87.51zm248.53 98.02c91.01,0 91.01,0 -45.51,140.02l-133.02 136.52 -66.51 -140.02c-80.51,-185.52 -80.51,-185.52 45.5,-157.52 59.51,10.5 150.52,21.01 199.52,21.01l0.01 0zm-297.54 122.51c31.5,70.02 59.5,140.02 59.5,157.52 0,56 -147.02,38.51 -276.53,-31.5l-115.52 -63.01 115.52 -91.01c66.51,-52.51 129.52,-94.51 140.02,-94.51 10.5,0 45.51,56 77.01,122.51zm-1995.27 -42.01c-133.02,210.03 -304.54,444.56 -325.54,444.56 -49.01,0 -112.02,-206.53 -84.02,-269.54 21.01,-49.01 31.5,-38.51 52.51,59.5 21,101.52 21,94.51 10.5,-42 -10.5,-157.52 -3.5,-168.02 84.02,-189.02 52.51,-10.5 112.02,-24.5 129.52,-31.5 91.01,-31.5 161.02,-17.5 133.02,28l-0.01 0zm280.04 203.04c91.01,108.51 164.53,210.03 164.53,224.03 0,52.51 -381.56,-385.06 -385.06,-437.56 0,-28 10.5,-35 28,-17.5 17.5,21.01 101.52,122.52 192.53,231.03zm2754.87 -199.54c0,24.5 -91.01,122.52 -199.52,217.03l-203.02 168.02 192.53 -213.52c220.53,-245.03 210.03,-234.53 210.03,-171.52l-0.01 0zm-633.59 206.53c3.5,49.01 -14,56 -91.01,38.51 -154.02,-38.51 -157.52,-45.5 -56,-150.52 94.51,-98.02 98.02,-98.02 122.51,-24.5 10.5,38.51 21.01,101.52 24.5,136.52l0 -0.01zm-2334.82 -119.01c7.01,21.01 140.02,168.02 301.04,332.55 248.53,252.04 294.04,318.55 304.54,430.56 10.5,133.02 10.5,133.02 -45.5,52.51 -196.03,-273.04 -192.53,-269.54 -469.06,-269.54 -189.03,0 -287.04,-17.5 -353.56,-63.01l-94.51 -63.01 147.02 -224.03c150.52,-224.03 185.52,-259.04 210.03,-196.03l-0.01 0zm1113.16 217.03c0,21.01 -14,24.5 -35,14 -17.5,-10.5 -35.01,-38.51 -35.01,-56 0,-21.01 17.5,-24.5 35.01,-14 21,10.5 35,38.51 35,56zm1134.15 168.02l-87.51 161.02 73.51 10.5c42,7 112.02,-21.01 154.02,-59.51 42,-42 87.51,-63.01 101.52,-52.51 14,17.5 -56,213.52 -105.01,290.54 -3.5,7 -63.01,-28 -129.52,-77.01 -94.52,-73.5 -122.52,-126.02 -143.52,-255.54 -10.5,-91.01 -31.5,-182.02 -42,-206.53 -10.5,-38.51 14,-38.51 122.51,-10.5l140.02 35.01 -84.02 164.53 0 -0.01zm-1589.21 157.52c0,17.5 -45.5,-7.01 -98.02,-59.51 -56,-52.51 -108.51,-87.51 -119.01,-73.51 -10.5,10.5 -31.5,0 -49.01,-24.5 -17.5,-28 -10.5,-35.01 21.01,-14 35.01,21 42,14 21,-38.51 -17.5,-42 17.5,-24.5 98.02,52.51 70.02,66.51 126.02,136.52 126.02,157.52l-0.01 -0.01zm472.56 -28c49.01,66.51 73.51,119.01 56,119.01 -21.01,0 -49.01,0 -63.01,0 -17.5,0 -49.01,-52.51 -70.02,-115.52l-45.5 -112.02 21.01 112.02c14,87.51 7,115.52 -31.5,115.52 -31.51,0 -80.51,10.5 -112.02,21.01 -56,24.5 -56,17.5 0,-87.51 31.51,-63.01 49.01,-122.52 38.51,-133.02 -7,-10.5 -49.01,45.5 -91.01,126.02 -38.51,80.52 -77.01,143.52 -84.01,143.52 -10.5,0 -38.51,10.5 -70.02,21 -49.01,17.5 -49.01,7.01 -10.5,-108.51 84.01,-238.04 318.54,-290.54 462.06,-101.52zm245.03 115.52c28,59.51 42,133.02 28,164.53 -35.01,98.02 52.51,24.5 112.02,-91.01 52.51,-105.01 31.5,-101.52 518.07,-77.01 94.51,3.5 164.52,38.51 255.54,119.01 115.52,112.02 119.01,119.01 66.51,196.03 -31.5,42 -73.51,66.51 -94.52,56 -24.5,-14 -24.5,0 0,42 21.01,38.51 38.51,304.54 38.51,591.57 7,542.58 35.01,1036.14 63.01,1067.64 7,7.01 3.5,-371.04 -7,-843.61 -21.01,-801.61 -17.5,-861.11 42,-913.62 45.51,-42 80.51,-49.01 115.52,-28 45.5,28 42,35.01 -7,35.01 -31.5,0 -70.02,17.5 -84.02,38.51 -14,28 3.5,31.5 56,14 77.01,-24.5 77.01,-21 52.51,234.53 -14,140.02 -42,532.07 -63.01,868.12 -31.5,465.56 -52.51,612.58 -87.51,612.58 -28,0 -94.51,-147.02 -168.02,-367.56l-119.01 -367.55 38.51 -455.06c21.01,-252.03 49.01,-486.56 66.51,-525.07 17.5,-49.01 10.5,-98.02 -21.01,-140.02 -28,-35.01 -42,-98.02 -28,-136.52 17.5,-73.5 17.5,-73.5 -45.5,0 -126.02,143.52 -378.05,259.04 -570.58,259.04 -150.52,0 -178.53,-10.5 -161.02,-56 10.5,-28 -10.5,-112.02 -45.5,-182.02 -56,-112.02 -63.01,-217.03 -17.5,-217.03 7.01,0 35.01,45.51 66.51,101.52l-0.01 -0.02zm-1225.17 171.52l63.01 150.52 -182.02 161.02c-98.02,87.51 -171.52,168.02 -161.02,178.53 10.5,10.5 98.02,-56 192.53,-150.52l175.02 -171.52 105.01 101.52c122.52,119.01 129.52,143.52 35.01,175.02 -42,14 -80.51,63.01 -91.01,122.52l-21 98.02 -199.52 -70.02c-108.52,-38.51 -217.03,-70.02 -238.04,-73.51 -52.51,0 -59.5,-31.5 -17.5,-80.51 52.51,-56 224.03,-570.58 210.03,-616.08 -10.5,-24.5 -63.01,101.52 -119.01,280.04 -56,175.02 -108.52,322.05 -119.01,322.05 -10.5,0 -21.01,-108.51 -28,-238.03l-10.5 -241.54 133.02 -87.51c150.52,-105.01 171.52,-94.52 273.04,140.02l-0.03 -0.01zm185.52 -185.52c3.5,3.5 -14,66.51 -38.51,143.52l-49.01 136.52 -77.01 -147.02c-38.51,-80.51 -73.51,-157.52 -73.51,-168.02 0,-21.01 210.03,10.5 238.04,35.01zm154.02 185.52c63.01,94.51 84.01,161.02 70.01,245.03 -7,59.5 -24.5,112.02 -38.51,112.02 -14,0 -73.51,-52.51 -133.02,-115.52 -105.01,-105.01 -108.51,-119.01 -70.02,-245.03 24.5,-70.02 52.51,-129.52 63.01,-129.52 14,0 63.01,59.5 108.51,133.02l0.01 0zm581.07 -73.52c66.51,126.02 675.59,1995.27 682.6,2089.78 14,192.53 -73.51,136.52 -143.52,-91.01 -38.51,-122.52 -189.02,-570.58 -336.05,-1001.13 -192.53,-567.07 -259.04,-808.61 -245.03,-892.61l17.5 -112.02 -49.01 105.01c-49.01,108.52 7,294.04 567.07,1890.26 140.02,388.55 52.51,273.04 -185.52,-259.04 -182.02,-402.55 -255.54,-528.57 -304.54,-528.57 -45.5,0 -119.01,-105.01 -259.04,-385.06 -108.52,-213.52 -213.52,-378.05 -227.54,-367.56 -17.5,10.5 10.5,91.01 59.5,178.53 49.01,87.51 84.02,164.53 77.01,171.52 -7.01,7 -98.02,17.5 -203.03,21.01 -199.52,10.5 -245.03,-21.01 -192.53,-136.52 14,-31.5 28,-70.02 28,-84.02 3.5,-10.5 17.5,-35.01 35.01,-52.51 17.5,-17.5 21.01,-10.5 7.01,14 -35.01,63.01 17.5,56 101.52,-14 66.51,-52.51 66.51,-52.51 3.5,-31.5 -154.02,52.51 112.02,-143.52 280.04,-206.53 94.51,-35.01 154.02,-70.02 129.52,-77.01 -21.01,-7.01 -98.02,10.5 -168.02,38.51 -73.51,31.5 -136.52,56 -140.02,56 -7,0 7.01,-59.51 28,-133.02 42,-136.52 91.01,-185.52 234.53,-220.53 147.02,-38.51 171.52,-35.01 203.02,28l0 0.01zm217.04 66.51c28,84.02 31.5,136.52 7,161.02 -24.5,24.5 -21.01,87.51 14,199.52 87.51,294.04 45.5,234.53 -73.5,-101.52 -84.02,-241.54 -105.01,-339.54 -77.01,-357.05 70.02,-45.5 87.51,-31.5 129.52,98.02l-0.01 0zm-1575.21 -17.5c0,24.5 -42,28 -112.02,14 -87.5,-17.5 -101.52,-14 -63.01,14 28,21 80.51,38.51 115.52,38.51 73.51,0 49.01,52.51 -45.5,105.01 -56,31.5 -77.01,21.01 -122.52,-66.51 -38.51,-80.51 -42,-108.51 -7,-119.01 80.51,-35.01 234.53,-24.5 234.53,14zm2380.31 581.08c-21.01,266.04 -45.5,486.56 -49.01,490.07 -3.5,3.5 -70.01,-182.02 -150.52,-409.56l-147.02 -416.56 164.53 -101.52c91.01,-56 178.53,-91.01 196.03,-77.01 14,17.5 10.5,241.54 -14,514.57l-0.01 0.01zm-2611.35 -332.54c-10.5,17.5 -42,28 -70.02,28 -49,0 -70.01,-143.52 -24.5,-189.02 28,-28 115.52,122.51 94.51,161.02zm231.04 35l0 150.52 -70.02 -87.51c-59.5,-80.51 -59.5,-91.01 -10.5,-147.02 31.5,-35 63.01,-63.01 70.01,-63.01 3.5,0 10.5,66.51 10.5,147.02zm1977.76 -7c14,21.01 94.52,227.54 178.53,462.07 136.52,381.56 154.02,458.56 154.02,724.6 0,164.53 -10.5,381.55 -21.01,483.06 -21,164.52 -28,178.53 -98.01,154.02 -77.01,-28 -119.01,-161.02 -427.06,-1281.18 -66.51,-252.03 -129.52,-483.06 -140.02,-518.07 -17.5,-52.51 7,-59.5 157.52,-59.5 94.52,0 185.52,17.5 196.03,35zm-1634.72 388.55c192.53,66.51 287.04,136.52 175.02,136.52 -21,0 -66.51,24.5 -101.52,56 -35.01,31.5 -77.01,45.51 -98.02,35.01 -59.51,-38.51 -255.54,-301.04 -224.04,-301.04 17.5,0 129.52,31.5 248.53,73.5l0.01 0.01zm-168.02 154.02c0,24.5 24.5,52.51 52.51,66.51 59.5,21.01 73.5,126.02 17.5,126.02 -21,0 -56,-42 -80.51,-98.02 -21,-52.51 -59.5,-108.52 -84.01,-122.52 -24.5,-14 -45.51,-52.51 -45.51,-84.02 0,-49.01 7.01,-49.01 70.02,7.01 38.51,35 70.01,84.01 70.01,105.01l-0.01 0zm42 287.04c84.02,171.52 157.52,322.05 164.53,343.04 7.01,17.5 -87.51,-52.51 -210.03,-157.52 -122.51,-101.52 -238.03,-199.52 -255.54,-213.53 -24.5,-24.5 101.52,-276.53 140.02,-276.53 7.01,0 80.51,136.52 161.02,304.54l0 -0.01zm931.13 -136.52c45.5,84.02 77.01,157.52 70.01,168.02 -10.5,7 -119.01,21.01 -241.54,31.5l-224.03 17.5 -112.02 -171.52 -112.02 -175.02 112.02 -14c63.01,-7.01 182.02,-14 269.54,-10.5 147.02,3.5 161.02,14 238.04,154.02zm-689.59 42c-24.5,112.02 -28,115.52 -52.51,42 -17.5,-49.01 -10.5,-101.52 17.5,-133.02 56,-70.02 66.51,-52.51 35.01,91.01l0 0.01zm185.52 84.01c49.01,87.51 91.01,203.03 91.01,259.04 0,84.02 -21.01,105.01 -122.52,136.52 -73.5,24.5 -129.52,24.5 -143.52,7.01 -24.5,-42 42,-556.58 73.51,-556.58 7,0 52.51,70.01 101.52,154.02zm-266.03 3.5c24.5,49.01 42,133.02 42,185.52 0,87.51 -7,84.02 -91.01,-56 -80.51,-133.02 -87.51,-217.03 -17.5,-217.03 14,0 45.5,38.51 66.51,87.51zm987.13 112.01c0,14 -17.5,77.01 -42,140.02 -38.51,108.52 -52.51,115.52 -150.52,94.51 -56,-14 -157.52,-63.01 -220.53,-112.02 -63.01,-49.01 -122.51,-77.01 -133.02,-70.01 -10.5,10.5 35,52.51 98.02,94.51 112.02,70.02 115.52,73.51 24.5,73.51 -101.52,0 -171.52,-59.51 -171.52,-147.02 0,-49.01 38.51,-63.01 255.54,-73.51 136.52,-3.5 273.04,-14 297.54,-17.5 21.01,-3.5 42,3.5 42,17.5l0 0.01zm287.04 539.07c112.02,252.03 192.53,472.56 182.02,490.07 -52.51,87.51 -129.52,-3.5 -322.05,-360.55 -206.53,-392.05 -206.53,-395.56 -154.02,-507.57 31.5,-63.01 63.01,-108.52 70.02,-98.02 10.5,10.5 108.51,224.03 224.03,476.07zm829.61 -77.01c59.5,192.53 108.51,360.55 108.51,378.05 0,14 -31.5,66.51 -66.51,115.52 -56,70.02 -73.5,77.01 -122.51,38.51 -45.51,-38.51 -56,-126.02 -56,-462.07 0,-231.03 7,-416.56 14,-416.56 10.5,0 63.01,157.52 122.52,346.55zm563.57 -136.51c0,10.5 -56,73.5 -122.51,140.02 -66.51,66.51 -122.52,133.02 -122.52,154.02 0,21 80.51,-42 175.02,-136.52l175.03 -171.52 0 217.03c0,175.02 -17.5,245.03 -84.02,343.04l-80.51 122.52 -91.01 -119.01 -91.01 -119.01 164.53 10.5c126.02,10.5 143.52,7 77.01,-17.5 -49.01,-17.5 -129.52,-31.5 -178.53,-35.01 -101.52,-3.5 -108.51,-31.5 -80.51,-304.54l17.5 -182.02 122.51 38.51c66.51,21.01 119.01,45.5 119.01,59.51zm-1827.24 -17.5c10.5,7 -7.01,73.5 -38.51,147.02 -45.5,119.01 -66.51,133.02 -196.03,143.52 -136.51,10.5 -143.52,7 -143.52,-87.51 0,-52.51 -10.5,-136.52 -24.5,-182.02 -21.01,-84.02 -21.01,-84.02 182.02,-59.51 115.52,14 213.52,31.5 220.53,38.51l0.01 -0.02zm-441.06 147.02c10.5,94.51 14,171.52 10.5,175.02 0,3.5 -70.01,-10.5 -150.52,-31.5 -133.02,-31.5 -150.52,-49.01 -140.02,-129.52 10.5,-84.02 126.02,-175.03 224.03,-178.53 24.5,0 49.01,73.5 56,164.53zm693.09 234.53c105.01,196.03 189.03,399.06 196.03,472.56 7.01,108.52 0,115.52 -31.5,63.01 -24.5,-38.51 -140.02,-189.03 -259.04,-339.54l-217.03 -273.04 59.51 -140.02c31.5,-77.01 59.5,-140.02 63.01,-136.51 3.5,3.5 87.51,161.02 189.02,353.55l0 -0.01zm-661.59 87.51c24.5,59.51 21,98.02 -7.01,122.52 -31.5,28 -35,28 -17.5,-3.5 10.5,-21 -42,-94.51 -122.51,-164.53l-143.52 -122.51 129.52 42c84.01,24.5 140.02,70.02 161.02,126.02l0 0.01zm276.54 -119.01c0,24.5 -182.02,301.04 -192.53,290.54 -3.5,-7 -17.5,-73.5 -24.5,-150.52 -17.5,-136.52 -17.5,-140.02 98.02,-147.02 66.51,-7 119.01,-3.5 119.01,7.01l0 -0.01zm280.04 287.03c227.54,273.04 220.53,276.53 -112.02,14 -164.52,-129.52 -192.53,-168.02 -164.52,-220.53 17.5,-35.01 38.51,-63.01 45.5,-63.01 7,0 108.51,119.01 231.03,269.54l0.01 0zm1522.7 101.52c-101.52,77.01 -122.52,59.5 -129.52,-101.52l-3.5 -147.02 -14 147.02c-14,154.02 -70.01,189.03 -182.02,119.01 -38.51,-24.5 -28,-59.5 63.01,-175.02l112.02 -140.02 112.02 122.52c105.01,122.52 105.01,129.52 42,175.02l0 0.01zm-2397.81 -164.53c0,14 -52.51,45.5 -112.02,66.51l-115.52 42 115.52 -17.5c108.51,-14 115.52,-10.5 91.01,63.01 -31.5,105.01 -31.5,105.01 -119.01,59.5 -42,-21 -84.02,-31.5 -94.51,-21 -10.5,10.5 66.51,59.5 178.53,112.02 217.03,98.02 227.54,154.02 28,154.02 -98.02,0 -115.52,-10.5 -84.01,-42 70.01,-70.02 45.5,-112.02 -24.5,-49.01 -63.01,59.5 -66.51,56 -108.52,-63.01 -42,-136.52 -10.5,-234.53 98.02,-297.54 73.51,-45.51 147.02,-49.01 147.02,-7.01l-0.01 0.01zm777.1 147.02c122.51,98.02 262.53,203.02 315.04,231.03 73.51,45.5 154.02,210.03 119.01,248.53 -10.5,7 -745.6,-430.56 -787.61,-469.06 -14,-14 94.52,-189.02 119.01,-189.02 10.5,0 115.52,80.51 234.53,178.53l0.01 0zm1949.76 406.05c7,150.52 -49.01,80.51 -122.52,-157.52 -70.01,-217.03 -73.5,-241.54 -21,-339.54l56 -105.01 42 262.54c24.5,143.52 45.5,297.54 45.5,339.54l0.01 0zm-847.11 -140.02c-7.01,3.5 -94.52,-14 -196.03,-45.51 -189.03,-56 -189.03,-56 -59.51,-231.03l70.02 -98.02 98.02 182.02c52.51,98.02 94.51,185.52 87.51,192.53zm-1746.74 -297.54c70.01,70.01 52.51,203.02 -24.5,203.02 -91.01,0 -115.52,-45.5 -87.51,-157.52 24.5,-98.02 49.01,-108.51 112.02,-45.5l-0.01 0zm276.54 112.02c42,24.5 35.01,45.5 -45.51,129.52 -52.51,56 -115.52,101.52 -143.52,101.52 -24.5,0 -10.5,31.51 35.01,80.51 42,45.51 94.51,77.01 115.52,70.02 17.5,-7 175.02,17.5 343.04,59.5 220.53,52.51 343.04,101.52 444.56,182.02 73.51,59.5 129.52,115.52 126.02,122.51 -7,7.01 -220.53,-66.51 -472.56,-157.52 -252.04,-94.51 -469.06,-161.02 -486.56,-150.52 -14,10.5 -31.51,42 -38.51,70.01 -10.5,42 0,42 38.51,7.01 42,-31.5 147.02,-7.01 532.07,136.52 262.53,94.51 490.07,168.02 507.57,157.52 14,-10.5 45.5,7 70.02,35.01 24.5,28 35.01,52.51 24.5,52.51 -56,0 -1162.15,-318.54 -1183.16,-343.04 -10.5,-14 -45.51,-91.01 -77.01,-168.02 -49.01,-129.52 -49.01,-164.53 -3.5,-315.04 52.51,-182.02 129.52,-262.53 150.52,-161.02 7,31.5 35,73.51 63.01,91.01l0 -0.02zm1123.65 -31.5c-56,80.51 -101.52,115.52 -150.52,108.51 -38.51,-7 -49.01,-3.5 -24.5,3.5 56,21 52.51,45.5 -10.5,196.03 -80.51,192.53 -59.5,203.02 35.01,21l84.02 -164.52 199.52 56c182.02,52.51 189.02,59.51 115.52,91.01 -45.51,17.5 -168.02,70.01 -273.04,115.52 -105.01,45.5 -203.02,70.01 -217.02,56 -14,-17.5 -35.01,-119.01 -49.01,-227.53l-24.5 -199.52 185.52 -87.51c105.01,-45.51 192.53,-87.51 199.52,-87.51 3.5,-3.5 -28,52.51 -70.02,119.01l-0.01 0zm343.04 -59.51c38.51,31.5 154.02,189.03 255.54,350.05 101.52,157.52 192.53,287.04 199.52,287.04 21.01,0 -45.5,-122.51 -185.52,-346.55 -66.51,-101.52 -115.52,-189.02 -108.51,-196.03 7,-3.5 59.5,7 115.52,21 80.51,24.5 133.02,80.51 224.03,248.53l119.01 217.03 -84.02 66.51 -84.02 66.51 -182.02 -199.52c-171.52,-185.52 -420.05,-577.57 -367.55,-577.57 14,3.5 56,28 98.02,63.01l0 -0.01zm696.59 304.54c73.51,213.52 73.51,227.54 14,227.54 -38.51,0 -101.52,-73.51 -171.52,-196.03 -63.01,-105.01 -108.52,-199.52 -101.52,-203.03 45.51,-38.51 157.52,-84.01 168.02,-70.01 10.5,7 49.01,115.52 91.01,241.54l0.01 0zm861.11 -203.03c35.01,35.01 -38.51,280.04 -87.51,297.54 -17.5,7.01 -52.51,-24.5 -80.51,-66.51 -49.01,-70.01 -45.5,-80.51 59.51,-133.02 63.01,-31.5 105.01,-66.51 94.51,-73.51 -10.5,-10.5 -66.51,7 -126.02,35.01 -136.51,70.01 -133.02,73.51 -154.02,-35.01 -17.5,-91.01 -10.5,-91.01 122.51,-73.51 77.01,10.5 154.02,31.5 171.52,49.01zm-308.04 80.51c14,52.51 -24.5,105.01 -154.02,213.53 -94.51,77.01 -185.52,136.51 -206.53,129.52 -21,-7.01 38.51,-108.52 129.52,-227.54 168.02,-220.53 199.52,-238.04 231.03,-115.52l0 0.01zm-318.55 73.52l-28 119.01 -28 -101.52c-17.5,-70.02 -10.5,-112.02 21.01,-129.52 63.01,-38.51 70.01,-17.5 35.01,112.02l-0.01 0.01zm129.52 -70.02c-45.5,87.51 -119.01,129.52 -91.01,52.51 14,-35.01 24.5,-73.51 24.5,-87.51 0,-14 24.5,-28 49.01,-28 38.51,0 42,17.5 17.5,63.01l0 -0.01zm-1974.27 220.53c252.04,143.52 304.55,189.02 276.54,238.03 -10.5,14 -3.5,28 17.5,28 17.5,0 122.51,52.51 231.03,119.01 175.02,105.01 189.02,122.52 122.51,143.52 -49,14 -98.01,3.5 -136.51,-31.5 -38.51,-35.01 -91.01,-49.01 -129.52,-35.01 -49.01,14 -52.51,10.5 -21.01,-14 38.51,-24.5 24.5,-49.01 -63.01,-112.02 -59.51,-42 -101.52,-87.51 -87.51,-98.02 24.5,-28 -189.02,-122.52 -297.54,-129.52 -147.02,-14 -595.08,-129.52 -595.08,-157.52 0,-14 59.51,-66.51 129.52,-115.52 126.02,-91.01 133.02,-91.01 220.53,-35 49.01,31.5 199.52,122.51 332.54,199.52l0 0.02zm2572.85 -7.01c0,73.51 -59.51,140.02 -304.55,336.05 -273.04,217.03 -315.04,241.54 -364.05,196.03 -28,-28 -70.02,-49.01 -87.51,-49.01 -17.5,3.5 3.5,31.5 45.5,66.51l80.51 66.51 -87.51 56c-112.02,73.51 -112.02,73.51 -98.02,-59.5l10.5 -112.02 -38.51 105.01c-52.51,140.02 -45.5,136.52 -189.02,87.51 -112.02,-38.51 -192.53,-136.52 -192.53,-245.03 0,-38.51 175.02,-245.03 206.53,-245.03 14,0 52.51,49.01 87.51,108.52l66.51 108.51 -147.02 -14c-77.01,-7 -143.52,0 -143.52,14 0,17.5 66.51,28 150.52,28l147.02 3.5 -157.52 84.02c-87.51,45.5 -136.52,84.02 -115.52,87.51 24.5,0 147.02,-56 269.54,-122.52 262.53,-143.52 262.53,-140.02 248.53,-63.01 -3.5,35.01 0,45.51 7,21.01 17.5,-52.51 444.56,-360.55 507.57,-364.05 28,0 31.5,-7 7.01,-17.5 -31.51,-14 -31.51,-49.01 -3.5,-140.02 42,-133.02 94.51,-101.52 94.51,63.01l0.01 -0.01zm-280.04 -10.5l73.5 105.01 -185.52 119.01 -185.52 115.52 -63.01 -80.51c-63.01,-80.51 -63.01,-80.51 49.01,-178.53 119.01,-101.52 220.53,-178.53 231.03,-182.02 3.5,0 38.51,45.5 80.51,101.52zm-1144.66 164.53c150.52,161.02 182.02,217.02 171.52,294.04l-14 98.02 -483.06 -161.02 -486.56 -161.02 304.54 -129.52c168.02,-73.51 308.04,-133.02 315.04,-133.02 3.5,-3.5 91.01,84.02 192.53,192.53l-0.01 0.01zm1606.72 28c45.5,66.51 31.5,91.01 -59.51,91.01 -49.01,0 -87.51,14 -87.51,35.01 0,17.5 -59.5,35.01 -129.52,35.01l-133.02 -3.5 112.02 -94.51c115.52,-98.02 252.03,-126.02 297.54,-63.01zm-966.13 98.02c-10.5,63.01 -38.51,129.52 -63.01,150.52 -28,24.5 -31.5,21 -14,-10.5 14,-24.5 3.5,-84.01 -28,-129.52 -73.5,-112.02 -70.01,-122.51 35.01,-122.51 84.02,0 91.01,7 70.02,112.02l-0.01 0zm98.02 87.51c-80.51,59.5 -94.51,42 -63.01,-77.01 24.5,-94.51 28,-94.51 73.51,-31.5 42,56 38.51,70.02 -10.5,108.52zm1179.66 -35.01c45.51,52.51 35.01,56 -115.52,38.51 -94.52,-10.5 -168.02,-7 -168.02,7.01 0,17.5 -84.02,38.51 -182.02,49.01 -101.52,14 -248.53,31.5 -325.54,45.5l-140.02 17.5 84.01 -66.51c66.51,-56 122.52,-66.51 255.54,-52.51 105.01,10.5 168.02,3.5 168.02,-21 0,-21.01 66.51,-45.5 150.52,-52.51 80.51,-7 164.52,-14 185.52,-17.5 21.01,-3.5 63.01,17.5 87.51,52.51zm-2103.79 150.53c182.02,63.01 339.54,119.01 346.55,126.02 7,7 -7.01,35.01 -31.5,66.51 -35.01,42 -35.01,52.51 0,52.51 28,0 38.51,7.01 28,17.5 -17.5,17.5 -798.11,-395.56 -798.11,-423.56 0,-10.5 28,-3.5 63.01,14 31.5,17.5 210.03,84.02 392.05,147.02l0 -0.01zm1904.26 -49.01c14,35 7,45.5 -21.01,28 -24.5,-14 -28,-10.5 -14,17.5 14,21 42,31.5 59.51,21 17.5,-14 31.5,-14 31.5,-3.5 0,7 7,35.01 17.5,63.01 14,31.5 -14,45.5 -84.02,45.5 -94.51,0 -105.01,-10.5 -84.02,-87.51 35.01,-150.52 59.51,-175.02 94.51,-84.01l0.01 0zm651.09 -7.01c0,91.01 -539.07,129.52 -570.58,42 -21.01,-52.51 21,-63.01 406.05,-84.02 119.01,-3.5 164.53,7 164.53,42l0 0.01zm126.02 -17.5c-14,17.5 0,42 21.01,49.01 24.5,10.5 10.5,21.01 -31.5,21.01 -87.51,3.5 -108.52,-49.01 -35.01,-77.01 63.01,-28 66.51,-28 45.5,7l0 -0.01zm-917.13 115.52c-10.5,45.5 -24.5,84.02 -28,84.02 0,3.5 -164.53,14 -364.05,24.5 -259.04,10.5 -357.04,3.5 -346.55,-24.5 14,-38.51 105.01,-63.01 444.56,-119.01 315.04,-52.51 322.05,-52.51 294.04,35.01l0 -0.01zm861.11 31.5c-66.51,14 -217.03,42 -332.55,63.01 -185.52,31.5 -189.02,35.01 -42,24.5 154.02,-10.5 210.03,17.5 129.52,66.51 -17.5,10.5 -136.52,31.5 -266.04,49.01l-234.53 28 91.01 -80.51c52.51,-45.5 94.51,-98.02 94.51,-115.52 0,-31.5 143.52,-49 525.07,-59.5 154.02,-7 157.52,-7 35.01,24.5l-0.01 0.01zm-2723.37 21.01c24.5,59.5 402.55,220.53 458.56,199.52 31.5,-10.5 59.5,-7.01 59.5,10.5 0,35.01 -455.06,266.04 -479.57,241.54 -38.51,-35 59.5,-143.52 171.52,-185.52l115.52 -45.51 -140.02 21.01c-136.52,17.5 -143.52,14 -175.03,-94.51 -21,-63.01 -56,-122.52 -84.01,-129.52 -38.51,-14 -35.01,3.5 7,66.51 101.52,140.02 77.01,206.53 -66.51,206.53l-129.52 0 94.51 -73.51c49.01,-38.51 91.01,-87.51 91.01,-108.51 0,-24.5 -42,-3.5 -91.01,45.5l-87.5 84.02 38.51 -105.01c21.01,-56 59.5,-115.52 80.51,-129.52 52.51,-35.01 119.01,-35.01 136.52,-3.5l0 -0.01zm1991.77 129.51c-70.01,73.51 -122.51,87.51 -399.06,105.01 -591.57,38.51 -822.61,42 -808.61,14 24.5,-38.51 -14,-35.01 -87.51,7.01 -49.01,24.5 -84.01,14 -143.52,-52.51 -94.51,-101.52 -66.51,-108.51 140.02,-35.01 122.51,42 161.02,45.5 238.03,3.5 52.51,-24.5 280.04,-56 507.57,-70.02 378.05,-21 409.56,-17.5 413.06,38.51 3.5,56 7,56 21,3.5 14,-52.51 63.01,-80.51 164.53,-94.51 17.5,0 -3.5,35.01 -45.5,80.51l-0.01 0zm-1988.27 283.54l-17.5 84.02 -101.52 -73.51c-56,-42 -101.52,-80.51 -101.52,-87.51 0,-7 52.51,-10.5 119.01,-10.5 105.01,0 115.52,7 101.52,87.51l0.01 -0.01z"/>
   <path class="fil0" d="M5031.56 3999.29c-52.51,77.01 -87.51,150.52 -77.01,161.02 10.5,10.5 63.01,-45.5 115.52,-122.51 52.51,-80.51 87.51,-154.02 77.01,-161.03 -10.5,-10.5 -63.01,45.51 -115.52,122.52z"/>
   <path class="fil0" d="M3963.92 4489.36c115.52,91.01 182.02,87.51 73.5,0 -45.5,-38.51 -98.02,-70.01 -122.51,-70.01 -21.01,0 0,31.5 49.01,70.01z"/>
   <path class="fil0" d="M4016.42 6957.19c77.01,66.51 171.52,143.52 210.03,164.53 129.52,73.5 0,-52.51 -182.02,-178.53l-168.02 -115.52 140.02 129.52 -0.01 0z"/>
   <path class="fil0" d="M6886.81 7254.73c-10.5,17.5 3.5,35.01 35,35.01 31.51,0 45.51,-17.5 35.01,-35.01 -10.5,-21.01 -28,-35.01 -35.01,-35.01 -7,0 -24.5,14 -35,35.01z"/>
  </g>
 </g>
</svg>
