<?xml version="1.0" encoding="UTF-8"?>
<!DOCTYPE svg PUBLIC "-//W3C//DTD SVG 1.1//EN" "http://www.w3.org/Graphics/SVG/1.1/DTD/svg11.dtd">
<!-- Creator: CorelDRAW 2021.5 (Evaluation Version) -->
<svg xmlns="http://www.w3.org/2000/svg" xml:space="preserve" width="11in" height="8.5in" version="1.1" style="shape-rendering:geometricPrecision; text-rendering:geometricPrecision; image-rendering:optimizeQuality; fill-rule:evenodd; clip-rule:evenodd"
viewBox="0 0 11000 8500"
 xmlns:xlink="http://www.w3.org/1999/xlink"
 xmlns:xodm="http://www.corel.com/coreldraw/odm/2003">
 <defs>
  <style type="text/css">
   <![CDATA[
    .fil0 {fill:white;fill-rule:nonzero}
   ]]>
  </style>
 </defs>
 <g id="Layer_x0020_1">
  <metadata id="CorelCorpID_0Corel-Layer"/>
  <g id="_3117813101712">
   <path class="fil0" d="M4517.29 3079.76c0,19.8 8.25,29.7 16.5,24.76 9.9,-6.6 13.2,-16.5 9.9,-23.11 -4.95,-6.6 8.26,-13.2 28.06,-13.2 28.06,-3.3 18.16,11.55 -47.86,75.92 -54.46,52.81 -82.52,70.96 -85.81,54.46 -3.3,-13.2 1.65,-31.36 11.55,-41.26 24.76,-24.76 23.11,-39.61 -8.25,-51.16 -19.8,-6.6 -24.76,-3.3 -16.5,14.85 11.55,31.36 -16.5,107.28 -39.61,107.28 -11.55,0 -8.25,-16.5 6.6,-44.56 33.01,-64.36 3.3,-127.08 -54.46,-112.22 -84.17,19.8 -133.68,46.21 -133.68,72.61 0,21.45 -16.5,24.76 -97.37,21.45 -84.17,-4.95 -100.67,-1.65 -115.52,26.41 -14.85,29.7 -26.4,31.35 -70.96,19.8 -61.07,-18.15 -97.37,13.2 -92.42,82.52 3.3,85.81 -3.3,113.87 -36.31,123.78 -18.16,4.95 -39.61,23.1 -47.86,39.61 -18.16,31.36 -4.95,105.63 14.85,92.42 18.16,-11.55 74.27,56.11 59.41,70.96 -6.6,6.6 -23.11,-3.3 -36.31,-19.8 -13.2,-18.16 -23.11,-26.4 -23.11,-19.8 0,8.25 -18.15,1.65 -41.26,-13.2 -56.11,-36.31 -66.01,-34.66 -105.62,33.01 -44.56,75.92 -42.91,113.88 6.6,165.04 52.81,52.81 51.16,56.11 -6.6,56.11 -28.06,0 -54.46,8.25 -59.41,18.16 -18.15,26.4 1.65,36.31 36.31,16.5 26.41,-13.2 34.66,-8.25 49.51,33.01 21.46,54.46 -1.65,66.01 -28.06,14.85 -16.5,-31.36 -19.8,-31.36 -42.91,-8.25 -21.45,19.8 -23.11,31.35 -6.6,49.51 11.55,13.2 28.06,24.76 36.31,24.76 9.91,0 8.25,-11.55 -3.3,-24.76 -24.76,-29.7 1.65,-33.01 29.71,-4.95 29.7,29.7 24.76,39.61 -34.66,74.26 -37.96,23.11 -54.46,46.21 -57.76,80.87 -3.3,41.26 14.85,64.36 115.52,160.08 107.28,100.67 117.17,113.87 92.42,133.68 -33.01,24.76 -18.15,49.51 29.71,54.46 46.21,4.95 67.67,-72.61 24.76,-85.82 -14.85,-4.95 -74.26,-56.11 -133.68,-115.52 -84.17,-84.17 -99.02,-107.28 -77.57,-117.17 34.65,-13.2 160.08,84.17 160.08,123.77 0,16.5 19.8,46.21 44.56,69.32 28.06,24.76 36.31,28.06 21.46,8.25 -21.46,-28.06 -21.46,-31.36 0,-23.11 13.2,3.3 26.4,21.45 26.4,39.61 1.65,16.5 8.25,44.56 14.85,59.41 11.55,29.7 -33.01,62.71 -89.12,62.71 -41.26,0 -74.27,-52.81 -49.51,-77.57 13.2,-13.2 11.55,-21.45 0,-29.7 -28.06,-16.51 -37.96,29.7 -19.8,79.21 13.2,31.36 29.71,44.56 59.41,44.56 29.71,0 42.91,11.55 51.16,39.61 6.6,31.36 29.7,44.56 130.37,70.96 67.67,18.15 118.83,26.4 113.87,18.15 -4.95,-6.6 -21.45,-13.2 -36.31,-13.2 -21.45,0 -23.1,-3.3 -6.6,-14.85 16.5,-9.9 8.25,-18.15 -31.36,-33.01 -74.26,-26.41 -102.32,-19.8 -31.36,6.6 77.57,29.7 44.56,29.7 -49.51,1.65 -54.46,-18.16 -62.72,-24.76 -33.01,-24.76 31.36,-1.65 34.65,-6.6 18.15,-16.5 -16.5,-11.55 -6.6,-14.85 33.01,-13.2 59.41,3.3 74.26,11.55 150.18,80.87 26.4,26.41 56.11,46.21 64.36,46.21 8.25,0 11.55,18.16 4.95,39.61 -6.6,26.4 -1.65,41.26 16.5,47.86 14.85,6.6 26.41,3.3 26.41,-4.95 0,-9.91 8.25,-16.5 18.15,-16.5 9.91,0 14.85,11.55 8.25,24.76 -11.55,31.36 23.11,31.36 66.02,1.65 29.7,-23.11 29.7,-24.76 -13.2,-34.65 -26.4,-6.6 -57.76,-8.25 -70.96,-1.65 -16.5,6.6 -23.11,0 -19.8,-23.11 6.6,-44.56 28.06,-62.71 28.06,-23.1 0,24.76 3.3,26.4 16.5,6.6 11.55,-19.8 18.16,-19.8 46.21,4.95 18.16,16.51 37.96,28.06 46.21,26.41 8.25,-1.65 28.06,1.65 46.21,9.9 51.16,23.11 420.83,-3.3 465.39,-33.01 21.45,-13.2 41.26,-23.11 44.56,-21.45 1.65,3.3 16.5,-6.6 31.36,-19.8 26.4,-23.11 26.4,-26.4 0,-46.21 -29.71,-21.46 -54.46,-26.41 -51.16,-8.26 6.6,39.61 -6.6,47.86 -62.72,41.26 -70.96,-8.25 -130.37,-52.81 -70.96,-52.81 19.8,0 29.7,6.6 24.76,16.51 -4.95,8.25 1.65,16.5 14.85,16.5 33.01,0 34.65,-26.41 1.65,-39.61 -13.2,-4.95 -24.76,-24.76 -24.76,-42.91 0,-18.15 -8.25,-33.01 -18.16,-33.01 -9.9,0 -14.85,14.85 -9.9,33.01 4.95,18.16 1.65,29.71 -6.6,23.11 -8.25,-4.95 -14.85,-1.65 -14.85,8.25 0,8.25 -13.2,19.8 -28.06,23.11 -26.41,6.6 -26.41,8.25 -1.65,9.9 18.16,1.65 24.76,11.55 18.16,34.66 -6.6,28.06 -23.11,33.01 -94.07,33.01 -72.61,0 -90.77,-6.6 -132.03,-49.51 -26.41,-28.06 -41.26,-56.11 -34.66,-62.72 6.6,-6.6 16.5,-1.65 19.8,9.91 4.95,9.9 14.85,16.5 23.11,9.9 8.25,-4.95 14.85,3.3 14.85,16.5 0,29.71 26.4,34.66 41.26,9.91 4.95,-9.91 18.15,-16.5 26.4,-16.5 9.91,0 13.2,6.6 8.25,14.85 -6.6,8.25 -4.95,18.15 1.65,23.1 8.25,3.3 4.95,3.3 -6.6,1.65 -11.55,-3.3 -24.76,1.65 -29.7,9.9 -11.55,18.16 26.4,18.16 99.02,0l49.51 -13.2 -49.51 -1.65 -49.51 -3.3 39.61 -31.36c21.45,-18.16 47.86,-33.01 61.06,-33.01 13.2,0 23.11,-8.25 23.11,-18.16 0,-8.25 -9.91,-11.55 -19.8,-4.95 -16.5,9.9 -16.5,8.25 -1.65,-11.55 16.5,-21.45 16.5,-26.4 -3.3,-26.4 -13.2,0 -24.76,9.9 -24.76,23.1 0,11.55 -8.25,21.46 -18.16,21.46 -11.55,0 -13.2,-11.55 -6.6,-29.71 31.36,-75.92 29.71,-85.81 -18.15,-85.81 -46.21,1.65 -46.21,1.65 -13.2,21.45 34.65,19.8 36.31,61.07 3.3,61.07 -9.9,0 -11.55,-11.55 -6.6,-26.41 9.9,-26.4 0,-23.11 -75.92,29.7 -59.41,41.26 -59.41,19.8 -1.65,-41.26l46.21 -46.21 -54.46 9.9 -52.81 8.25 0 -97.37c0,-95.72 -1.65,-99.02 -49.51,-108.92l-47.86 -9.9 9.91 -158.44c6.6,-110.57 4.95,-160.08 -9.91,-168.33 -31.36,-19.8 -1.65,-115.52 49.51,-150.19 24.76,-18.15 57.76,-57.76 70.96,-85.81 29.7,-59.41 34.65,-145.23 8.25,-145.23 -11.55,0 -8.25,-16.5 9.91,-42.91 14.85,-23.11 23.1,-46.21 18.15,-51.16 -4.95,-4.95 -18.15,9.91 -28.06,34.66 -18.15,37.96 -47.86,59.41 -47.86,33.01 0,-18.16 136.98,-171.64 153.48,-171.64 9.91,0 -3.3,21.46 -29.7,49.51 -26.41,26.41 -39.61,49.51 -31.36,49.51 9.91,0 37.96,-23.11 64.36,-49.51 36.31,-37.96 42.91,-54.46 28.06,-69.31 -14.85,-14.85 -29.71,-9.9 -61.06,19.8 -23.11,21.45 -41.26,31.36 -41.26,23.11 0,-24.76 105.62,-113.87 133.68,-113.87 13.2,0 49.51,-19.8 80.87,-44.56 74.26,-57.76 51.16,-84.17 -82.52,-90.77 -90.77,-4.95 -99.02,-3.3 -99.02,28.06l0 -0.03zm-132.03 49.51c0,34.65 -75.92,82.52 -132.03,82.52 -23.11,0 -33.01,-9.9 -33.01,-37.96 0,-39.61 39.61,-69.31 107.28,-82.52 44.56,-8.25 57.76,1.65 57.76,37.96zm198.04 33.01c-49.51,44.56 -95.72,80.87 -102.32,82.52 -8.25,0 -13.2,18.16 -13.2,41.26 0,33.01 -8.25,41.26 -41.26,41.26 -23.1,0 -47.86,-13.2 -57.76,-33.01 -13.2,-24.76 -9.9,-34.65 16.5,-49.51 18.16,-9.9 39.61,-13.2 47.86,-9.9 8.25,4.95 54.46,-26.41 102.32,-72.61 49.51,-44.56 100.67,-82.52 113.87,-82.52 13.2,0 -16.5,36.31 -66.01,82.52l-0.01 0zm115.52 -47.86c-69.32,56.11 -110.57,69.31 -49.51,16.5 31.35,-28.06 66.01,-49.51 74.26,-51.16 9.9,0 -1.65,14.85 -24.76,34.65zm-552.86 80.87c8.25,13.2 -36.31,330.07 -47.86,341.62 -3.3,3.3 -13.2,-47.86 -24.76,-112.22 -19.8,-108.92 -19.8,-118.83 9.9,-151.83 59.41,-66.01 61.06,-87.46 3.3,-33.01 -64.36,59.41 -108.92,69.31 -138.63,26.4 -13.2,-18.15 -23.11,-21.45 -31.36,-8.25 -6.6,11.55 -3.3,19.8 4.95,19.8 9.91,0 18.16,11.55 18.16,24.76 0,36.31 -34.66,29.71 -44.56,-6.6 -4.95,-21.46 -16.51,-29.71 -33.01,-23.11 -18.15,6.6 -23.1,3.3 -18.15,-13.2 8.25,-26.41 77.57,-33.01 107.27,-11.55 13.2,9.91 28.06,1.65 44.56,-24.76 19.8,-28.06 42.91,-39.61 84.17,-41.26 31.36,-1.65 61.07,4.95 66.02,13.2l0 0zm57.76 94.07c0,112.22 -8.25,110.57 -21.45,-8.26 -6.6,-49.51 -3.3,-85.81 4.95,-85.81 9.9,0 16.5,41.26 16.5,94.07zm100.67 64.36c-52.81,151.83 -62.72,148.53 -29.7,-11.55 18.15,-84.17 56.11,-158.44 72.61,-141.93 3.3,4.95 -16.5,72.61 -42.91,153.48zm-44.56 -47.86c-8.25,44.56 -14.85,110.57 -14.85,148.53 0,37.96 -4.95,64.36 -11.55,61.06 -8.25,-4.95 -13.2,11.55 -13.2,36.31 0,24.76 -4.95,41.26 -9.9,34.66 -6.6,-4.95 -4.95,-89.12 1.65,-184.84 8.25,-138.63 16.5,-173.29 36.31,-173.29 21.45,0 23.11,13.2 11.55,77.57zm-377.93 4.96c4.95,8.25 3.3,16.5 -6.6,16.5 -8.26,0 -21.46,-8.25 -26.41,-16.5 -4.95,-9.91 -3.3,-16.5 6.6,-16.5 8.25,0 21.45,6.6 26.4,16.5zm500.06 34.65c14.85,1.65 37.96,1.65 51.16,0 13.2,-3.3 3.3,19.8 -23.11,54.46 -52.81,69.31 -74.26,79.22 -33.01,16.5 14.85,-23.11 24.76,-46.21 21.45,-49.51 -4.95,-3.3 -33.01,37.96 -62.71,94.07 -87.47,151.83 -100.67,146.88 -44.56,-16.5 29.71,-82.52 54.46,-138.63 57.76,-125.43 3.3,13.2 18.15,26.4 33.01,26.4l0 0zm-321.82 110.57c24.76,110.57 26.41,141.93 11.55,156.78 -16.5,14.85 -18.15,14.85 -9.9,0 6.6,-11.55 -14.85,-82.52 -47.86,-156.78 -31.36,-74.27 -57.76,-136.98 -57.76,-140.28 0,-4.95 16.5,-4.95 36.31,-1.65 29.71,4.95 39.61,26.4 67.67,141.93l0 0zm125.43 47.86c-1.65,62.71 -9.9,87.46 -24.76,87.46 -13.2,0 -23.11,6.6 -23.11,16.5 0,8.26 6.6,16.51 14.85,16.51 16.5,0 51.16,89.12 51.16,133.68 0,21.45 -11.55,31.36 -36.31,31.36 -34.66,0 -34.66,0 -4.95,-33.01 29.7,-33.01 29.7,-34.65 1.65,-62.71 -23.11,-19.8 -33.01,-23.11 -37.96,-8.25 -4.95,11.55 -18.16,21.45 -31.36,21.45 -19.8,0 -21.45,6.6 -3.3,36.31 11.55,21.45 18.16,42.91 16.5,49.51 -1.65,8.25 21.45,13.2 52.81,13.2 36.31,0 74.27,14.85 105.62,41.26l49.51 41.26 -6.6 201.34c-3.3,112.22 -13.2,204.64 -21.45,207.94 -8.25,3.3 -28.06,-33.01 -42.91,-79.21 -21.45,-66.02 -26.4,-112.22 -16.5,-209.59 6.6,-67.67 14.85,-120.48 18.16,-115.52 3.3,3.3 11.55,84.17 16.5,178.24 4.95,94.07 13.2,174.94 18.15,179.89 3.3,4.95 4.95,-74.27 3.3,-173.29 -4.95,-166.69 -8.25,-184.84 -44.56,-211.25 -34.65,-29.7 -39.61,-29.7 -77.57,-4.95 -21.45,14.85 -57.76,28.06 -77.57,28.06 -33.01,3.3 -34.66,3.3 -4.95,9.91 52.81,9.9 117.17,214.54 110.57,346.57 -3.3,57.76 -11.55,103.97 -18.16,103.97 -14.85,0 -133.68,-387.83 -133.68,-434.04 0,-18.16 11.55,-51.16 26.4,-75.92 26.41,-42.91 24.76,-47.86 -74.26,-211.25 -56.11,-90.77 -100.67,-169.98 -100.67,-176.59 0,-33.01 37.96,3.3 107.28,105.63 70.96,103.97 125.43,151.83 102.32,92.42 -4.95,-11.55 -3.3,-28.06 4.95,-36.31 8.25,-8.25 23.11,-75.92 36.31,-151.83 16.5,-113.87 23.11,-128.73 33.01,-90.77 6.6,24.76 11.55,85.82 11.55,132.03l0 0.02zm-186.49 -34.66c31.36,67.67 56.11,128.73 56.11,133.68 0,4.95 -29.7,-36.31 -66.01,-90.77 -39.61,-62.72 -61.07,-113.88 -56.11,-130.38 4.95,-16.5 -3.3,-9.9 -19.8,14.85 -42.91,66.01 -72.61,70.96 -72.61,14.85 0,-56.11 9.9,-67.67 61.06,-67.67 33.01,0 49.51,19.8 97.37,125.43l-0 0zm-174.93 -11.55c0,18.16 8.25,37.96 16.5,42.91 9.9,4.95 16.5,19.8 16.5,29.7 0,11.55 -19.8,-1.65 -41.26,-26.4 -23.11,-26.41 -37.96,-54.46 -33.01,-62.72 16.5,-26.4 41.26,-16.5 41.26,16.5zm551.22 89.12c-26.41,29.71 -64.36,75.92 -82.52,100.67 -31.36,41.26 -39.61,42.91 -70.96,23.11 -52.81,-33.01 -56.11,-62.72 -6.6,-62.72 37.96,0 39.61,3.3 19.8,28.06 -19.8,23.11 -19.8,26.41 1.65,18.16 13.2,-3.3 28.06,-21.45 29.71,-39.61 8.25,-46.21 122.13,-158.43 141.93,-138.63 8.25,8.25 -3.3,36.31 -33.01,70.96l0 0zm-554.52 -6.6c29.7,36.31 52.81,70.96 52.81,77.57 0,16.5 -64.36,-44.56 -102.32,-97.37 -49.51,-69.31 -8.25,-52.81 49.51,19.8zm140.28 80.87c113.87,178.24 122.13,198.04 87.46,211.24 -14.85,4.95 -26.4,21.46 -26.4,34.66 0,13.2 -6.6,18.15 -16.5,13.2 -8.25,-4.95 -16.5,-21.45 -16.5,-34.66 0,-13.2 8.25,-19.8 16.5,-14.85 9.9,4.95 16.5,-1.65 16.5,-14.85 0,-13.2 -6.6,-29.7 -16.5,-34.65 -8.25,-4.95 -16.5,-3.3 -16.5,3.3 0,8.26 -14.85,14.85 -34.66,16.51 -19.8,1.65 -31.36,-4.95 -26.4,-16.51 8.25,-24.76 61.06,-28.05 90.77,-6.6 9.91,8.25 19.8,9.9 19.8,1.65 0,-8.25 -36.31,-37.96 -79.22,-64.36 -47.86,-31.35 -77.57,-62.71 -79.21,-82.52 -1.65,-18.16 -3.3,-36.31 -6.6,-41.26 -4.95,-11.55 -13.2,-115.52 -8.25,-115.52 1.65,0 46.21,66.02 95.72,145.23l-0 -0.01zm450.55 -14.85c-24.76,34.66 -66.02,84.17 -94.07,110.57l-51.16 47.86 11.55 -41.26c6.6,-23.1 37.96,-69.31 70.96,-103.97 33.01,-33.01 52.81,-61.06 44.56,-61.06 -6.6,0 0,-14.85 18.16,-34.65 51.16,-57.76 51.16,8.25 0,82.52l0 -0zm-704.7 -18.16c13.2,3.3 44.56,19.8 69.31,37.96 51.16,34.65 72.61,41.26 54.46,11.55 -6.6,-11.55 -4.95,-13.2 8.25,-6.6 9.9,6.6 14.85,18.16 11.55,24.76 -4.95,6.6 14.85,26.41 44.56,42.91 34.65,21.45 44.56,33.01 28.05,37.96 -13.2,4.95 -37.96,14.85 -56.11,23.11 -18.16,9.91 -26.41,9.91 -21.46,1.65 6.6,-8.25 -23.1,-49.51 -64.36,-89.12 -57.76,-56.11 -84.17,-70.96 -117.17,-67.66 -39.61,6.6 -42.91,3.3 -21.45,-19.8 11.55,-16.5 26.41,-21.46 31.36,-14.85 4.95,6.6 19.8,14.85 33.01,18.16l-0.01 -0.01zm-51.16 85.82c-42.91,59.41 -61.06,62.71 -51.16,9.9 8.26,-36.31 26.41,-49.51 75.92,-57.76 6.6,0 -3.3,19.8 -24.76,47.86l0 -0zm94.07 13.2c-4.95,4.95 18.16,36.31 51.16,70.96 36.31,37.96 52.81,64.36 41.26,70.96 -9.9,6.6 -13.2,29.7 -8.25,52.81 11.55,42.91 -11.55,52.81 -41.26,16.5 -21.45,-24.76 -6.6,-80.87 16.5,-66.01 8.25,4.95 14.85,1.65 14.85,-8.25 0,-26.41 -66.02,-54.46 -105.62,-44.56 -21.46,4.95 -49.51,0 -64.36,-11.55 -24.76,-18.15 -23.11,-24.76 14.85,-74.26 34.66,-42.91 47.86,-49.51 66.02,-34.66 13.2,11.55 19.8,23.11 14.85,28.06zm493.45 13.2c14.85,4.95 21.45,18.16 14.85,28.06 -4.95,8.25 3.3,26.41 19.8,39.61 24.76,16.5 26.41,26.41 11.55,41.26 -14.85,14.85 -24.76,14.85 -39.61,0 -14.85,-14.85 -14.85,-19.8 1.65,-19.8 11.55,0 14.85,-8.25 9.9,-16.5 -6.6,-9.9 -16.5,-13.2 -24.76,-8.25 -6.6,3.3 -16.5,-9.9 -19.8,-33.01 -9.9,-46.21 -9.9,-44.56 26.41,-31.36l0 0zm-90.77 41.26c-11.55,23.1 -23.1,29.7 -34.65,18.15 -21.46,-21.45 -3.3,-52.81 29.7,-52.81 19.8,0 21.45,6.6 4.95,34.66zm-245.9 46.21c-13.2,28.06 -9.9,33.01 21.46,37.96 31.35,4.95 47.86,39.61 123.77,260.75 47.86,143.58 84.17,273.96 79.22,297.06 -6.6,36.31 -4.95,37.96 14.85,11.55 19.8,-26.41 21.45,-26.41 42.91,6.6 21.45,29.71 23.11,18.16 19.8,-103.97l-4.95 -136.98 33.01 90.77c26.41,79.22 28.06,94.07 6.6,117.17 -26.41,29.7 -14.85,47.86 28.06,47.86 39.61,0 90.77,95.72 66.01,120.48 -13.2,13.2 -18.16,11.55 -18.16,-6.6 0,-11.55 -14.85,-41.26 -33.01,-64.36 -19.8,-23.1 -29.7,-29.7 -23.11,-13.2 8.25,26.41 4.95,26.41 -37.96,6.6 -24.76,-13.2 -69.31,-28.06 -99.02,-34.66 -47.86,-9.9 -51.16,-8.25 -41.26,28.06 4.95,19.8 11.55,28.06 16.5,16.5 6.6,-21.45 85.81,-28.06 85.81,-6.6 0,6.6 -23.1,21.45 -52.81,33.01 -41.26,14.85 -56.11,14.85 -66.01,-1.65 -23.11,-36.31 -14.85,-72.61 24.76,-100.67 36.31,-26.41 36.31,-26.41 1.65,-18.16 -29.71,8.25 -44.56,-6.6 -87.47,-82.52 -36.31,-62.72 -47.86,-100.67 -37.96,-117.17 11.55,-19.8 24.76,0 59.41,77.57 31.36,72.61 49.51,97.37 61.07,85.81 13.2,-13.2 13.2,-26.4 -1.65,-49.51 -16.5,-26.41 -18.16,-26.41 -9.9,-1.65 18.15,62.72 -6.6,24.76 -49.51,-69.31 -24.76,-54.46 -49.51,-99.02 -57.76,-99.02 -11.55,0 -118.82,-183.19 -108.92,-189.79 1.65,-1.65 18.16,-13.2 36.31,-23.11 31.36,-19.8 31.36,-19.8 -4.95,-11.55 -31.36,6.6 -36.31,1.65 -28.06,-19.8 6.6,-14.85 11.55,-39.61 11.55,-52.81 -1.65,-39.61 11.55,-66.01 29.7,-66.01 11.55,0 13.2,9.9 0,31.36l0 -0.01zm-141.93 11.55c13.2,4.95 19.8,19.8 14.85,33.01 -6.6,19.8 -13.2,18.16 -31.36,-4.95 -24.76,-34.65 -29.7,-16.5 -6.6,26.41 11.55,23.1 4.95,39.61 -29.7,72.61 -44.56,42.91 -44.56,42.91 -47.86,6.6 -1.65,-19.8 -6.6,-51.16 -8.25,-67.67 -3.3,-21.45 9.9,-41.26 36.31,-54.46 49.51,-24.76 41.26,-23.11 72.61,-11.55l0 0zm447.24 173.29l-11.55 103.97 -31.36 -82.52c-18.15,-44.56 -31.35,-85.81 -31.35,-90.77 0,-11.55 70.96,-46.21 80.87,-37.96 3.3,1.65 0,51.16 -6.6,107.28zm-424.14 -52.81c36.31,23.11 -11.55,87.47 -54.46,74.26 -47.86,-14.85 -49.51,-19.8 -16.5,-56.11 33.01,-36.31 39.61,-37.96 70.96,-18.15l0 0zm79.21 70.96c4.95,21.46 24.76,57.76 42.91,82.52l31.36 46.21 -61.06 0c-37.96,0 -69.32,-9.9 -82.52,-29.7 -33.01,-41.26 -28.06,-51.16 18.16,-42.91 24.76,4.95 41.26,0 41.26,-11.55 0,-9.91 -14.85,-14.85 -33.01,-9.91 -36.31,9.91 -44.56,-19.8 -13.2,-51.16 28.06,-28.05 42.91,-24.76 56.11,16.51l0 -0.01zm-141.93 19.81c44.56,18.16 47.86,23.11 23.11,33.01 -18.16,6.6 -41.26,0 -62.72,-23.11 -39.61,-39.61 -33.01,-41.26 39.61,-9.91zm-110.57 59.41c-23.11,28.06 -49.51,49.51 -56.11,49.51 -23.11,0 4.95,-56.11 41.26,-85.81 52.81,-42.91 62.72,-18.15 14.85,36.31zm87.46 4.95c6.6,6.6 21.46,3.3 31.36,-4.95 14.85,-11.55 28.06,-4.95 47.86,23.11 33.01,52.81 34.66,102.32 1.65,115.52 -19.8,6.6 -24.76,-4.95 -24.76,-47.86 0,-29.71 -8.25,-61.07 -16.5,-66.02 -11.55,-6.6 -14.85,3.3 -8.25,29.71 14.85,57.76 -8.25,64.36 -64.36,19.8 -29.7,-23.1 -44.56,-47.86 -37.96,-62.71 9.9,-24.76 49.51,-28.06 70.96,-6.6l0 0zm260.76 85.82c-9.9,23.1 -90.77,31.35 -127.07,13.2 -29.71,-16.5 11.55,-37.96 70.96,-37.96 51.16,0 62.72,4.95 56.11,24.76l0 0zm-138.63 82.52c0,24.76 -9.91,41.26 -23.11,41.26 -39.61,0 -49.51,-36.31 -18.16,-61.06 41.26,-28.06 41.26,-28.06 41.26,19.8l0 0zm118.82 -13.2c37.96,44.56 94.07,161.73 94.07,196.39 -1.65,37.96 13.2,107.27 24.76,118.82 4.95,4.95 18.15,0 29.7,-8.25 11.55,-8.25 46.21,-26.41 75.92,-37.96 49.51,-19.8 57.76,-18.16 94.07,16.5 24.76,23.1 41.26,57.76 41.26,85.81 0,54.46 -6.6,56.11 -82.52,11.55 -31.36,-18.16 -42.91,-28.06 -24.76,-21.46 69.31,23.11 97.37,23.11 47.86,1.65 -28.06,-13.2 -75.92,-29.71 -107.28,-36.31l-56.11 -13.2 41.26 34.65c69.32,59.41 16.5,39.61 -66.01,-23.11 -51.16,-37.96 -100.67,-62.71 -140.28,-66.01 -72.61,-6.6 -87.46,-16.5 -61.06,-42.91 13.2,-13.2 24.76,-13.2 42.91,1.65 11.55,9.9 36.31,21.45 52.81,26.4 18.15,3.3 46.21,9.91 64.36,16.5 26.4,9.91 28.06,8.26 8.25,-6.6 -13.2,-11.55 -51.16,-33.01 -82.52,-49.51 -62.71,-33.01 -117.17,-133.68 -72.61,-133.68 11.55,0 18.16,9.91 14.85,19.8 -6.6,18.16 103.97,112.22 130.37,112.22 16.5,0 -34.65,-90.77 -64.36,-115.52 -14.85,-13.2 -21.45,-34.66 -16.5,-56.11 8.25,-31.36 8.25,-31.36 -8.25,-6.6 -28.06,46.21 -82.52,37.96 -82.52,-11.55 0,-33.01 8.25,-41.26 37.96,-41.26 21.45,0 51.16,13.2 64.36,28.06l0.01 -0.01zm425.79 -13.2c0,8.25 -11.55,23.1 -24.76,34.65 -21.46,16.5 -24.76,14.85 -24.76,-14.85 0,-19.8 9.9,-34.65 24.76,-34.65 13.2,0 24.76,6.6 24.76,14.85zm29.7 94.07c-3.3,3.3 -23.1,1.65 -42.91,-4.95l-37.96 -9.91 37.96 -39.61 37.96 -41.26 4.95 44.56c3.3,24.76 3.3,46.21 0,51.16zm-442.29 42.91l37.96 51.16 -42.91 -31.36c-24.76,-16.5 -44.56,-41.26 -44.56,-52.81 0,-29.7 6.6,-24.76 49.51,33.01zm415.89 -16.5c14.85,11.55 29.7,36.31 33.01,54.46 3.3,21.45 16.5,31.36 37.96,28.06 31.36,-3.3 31.36,-3.3 1.65,19.8 -16.5,13.2 -26.41,34.65 -21.45,47.86 4.95,14.85 -3.3,21.45 -24.76,19.8 -39.61,-3.3 -89.12,-82.52 -61.06,-99.02 19.8,-13.2 18.16,-14.85 44.56,41.26l19.8 41.26 -11.55 -41.26c-4.95,-23.11 -9.9,-54.46 -8.25,-72.61 0,-16.5 -3.3,-26.4 -8.25,-19.8 -4.95,4.95 -21.45,0 -36.31,-11.55 -23.11,-16.51 -23.11,-16.51 -6.6,6.6 26.4,33.01 8.25,54.46 -24.76,26.41 -21.45,-14.85 -23.1,-14.85 -13.2,0 6.6,13.2 1.65,21.45 -13.2,21.45 -37.96,0 -33.01,-26.41 9.9,-56.11 44.56,-31.36 49.51,-31.36 82.52,-6.6l-0 0zm-580.92 72.61c0,13.2 -6.6,19.8 -16.51,14.85 -8.25,-4.95 -16.5,-16.5 -16.5,-26.4 0,-8.25 8.25,-14.85 16.5,-14.85 9.91,0 16.51,11.55 16.51,26.4zm778.96 105.63c8.25,0 9.9,6.6 4.95,16.5 -4.95,8.25 -18.16,16.5 -26.41,16.5 -9.9,0 -11.55,-8.25 -6.6,-16.5 13.2,-23.11 -13.2,-21.46 -36.31,1.65 -9.91,9.91 -26.41,13.2 -37.96,6.6 -13.2,-8.25 -6.6,-24.76 19.8,-52.81 36.31,-39.61 37.96,-39.61 52.81,-6.6 8.25,19.8 21.46,34.66 29.71,34.66zm-737.7 -16.5c4.95,8.25 1.65,16.5 -6.6,16.5 -9.9,0 -18.15,-8.25 -18.15,-16.5 0,-9.91 3.3,-16.51 6.6,-16.51 4.95,0 13.2,6.6 18.16,16.51zm569.37 85.81c0,9.9 -11.55,11.55 -26.4,6.6 -13.2,-4.95 -19.8,-3.3 -14.85,6.6 4.95,9.9 -1.65,16.5 -14.85,16.5 -31.36,0 -33.01,-8.25 -8.25,-51.16 13.2,-26.4 21.45,-29.7 41.26,-13.2 13.2,9.91 23.11,26.41 23.11,34.66zm297.06 42.91c0,19.8 4.95,21.46 19.8,6.6 11.55,-11.55 37.96,-19.8 62.71,-19.8 39.61,1.65 41.26,1.65 8.25,26.41 -19.8,14.85 -51.16,21.45 -75.92,16.5 -24.76,-4.95 -49.51,-3.3 -54.46,1.65 -6.6,6.6 -67.67,13.2 -138.63,16.5 -90.77,4.95 -120.48,1.65 -102.32,-9.9 13.2,-9.91 74.27,-18.16 136.98,-18.16 100.67,0 110.57,-3.3 110.57,-34.65 0,-18.16 8.25,-28.06 16.5,-23.11 9.9,4.95 16.5,23.11 16.5,37.96l-0 0zm-255.8 -14.85c4.95,8.25 1.65,19.8 -8.25,26.4 -8.25,4.95 -16.5,0 -18.15,-11.55 0,-16.5 -3.3,-16.5 -9.91,-1.65 -3.3,11.55 -19.8,21.45 -34.65,21.45 -24.76,0 -24.76,3.3 -3.3,16.5 21.45,13.2 21.45,16.5 -1.65,16.5 -47.86,0 -49.51,-21.45 -3.3,-52.81 52.81,-33.01 64.36,-36.31 79.22,-14.85l0.01 0zm-189.79 90.77c0,4.95 -6.6,13.2 -16.5,18.16 -8.25,4.95 -16.5,1.65 -16.5,-6.6 0,-9.9 8.25,-18.15 16.5,-18.15 9.91,0 16.5,3.3 16.5,6.6z"/>
   <path class="fil0" d="M3890.16 3574.86c9.91,18.16 21.45,33.01 26.41,33.01 3.3,0 0,-14.85 -9.91,-33.01 -9.9,-18.15 -21.45,-33.01 -26.4,-33.01 -3.3,0 0,14.85 9.9,33.01z"/>
   <path class="fil0" d="M3916.56 3659.03c34.65,37.96 37.96,37.96 33.01,3.3 -3.3,-14.85 -18.16,-28.06 -33.01,-31.36 -28.06,-3.3 -28.06,-3.3 0,28.06z"/>
   <path class="fil0" d="M3921.52 3886.78c16.5,23.1 51.16,103.97 77.57,178.24 24.76,75.92 47.86,133.68 51.16,130.37 3.3,-3.3 -18.16,-80.87 -47.86,-171.64 -36.31,-110.57 -64.36,-168.33 -82.52,-173.29 -24.76,-6.6 -24.76,-3.3 1.65,36.31l0 0.01z"/>
   <path class="fil0" d="M3683.87 3855.42c-6.6,19.8 -8.25,39.61 -3.3,44.56 4.95,3.3 13.2,-8.25 19.8,-28.06 6.6,-19.8 8.25,-39.61 3.3,-44.56 -4.95,-3.3 -13.2,8.25 -19.8,28.06z"/>
   <path class="fil0" d="M3675.61 4086.47c0,13.2 13.2,39.61 26.4,57.76 26.41,31.36 26.41,31.36 14.85,-8.25 -14.85,-51.16 -41.26,-82.52 -41.26,-49.51z"/>
   <path class="fil0" d="M4471.08 3102.87c11.55,13.2 24.76,19.8 28.06,18.16 8.25,-9.91 -16.5,-41.26 -33.01,-41.26 -8.25,0 -6.6,9.9 4.95,23.1l0 -0z"/>
   <path class="fil0" d="M4591.56 3228.29c-4.95,8.25 -1.65,16.5 6.6,16.5 9.9,0 18.15,-8.25 18.15,-16.5 0,-9.9 -3.3,-16.5 -6.6,-16.5 -4.95,0 -13.2,6.6 -18.16,16.5z"/>
   <path class="fil0" d="M4695.53 3916.48c14.85,4.95 19.8,70.96 19.8,244.25 0,173.29 -4.95,239.3 -19.8,244.25 -11.55,4.95 11.55,8.25 52.81,8.25 41.26,0 64.36,-3.3 54.46,-8.25 -16.5,-4.95 -21.46,-70.96 -21.46,-245.9 0,-196.39 4.95,-237.65 23.11,-237.65 36.31,0 75.92,66.01 75.92,128.73 0,37.96 -13.2,66.01 -42.91,94.07 -33.01,31.36 -37.96,41.26 -18.15,41.26 39.61,0 61.06,52.81 61.06,148.53 0,94.07 31.36,123.78 79.22,75.92 26.4,-26.4 26.4,-28.06 0,-16.5 -26.41,8.25 -29.71,0 -29.71,-74.26 0,-62.72 -8.25,-92.42 -34.65,-118.83l-34.66 -34.65 34.66 -23.11c26.4,-19.8 34.65,-42.91 34.65,-97.37 0,-97.37 -52.81,-140.28 -171.63,-138.63 -46.21,0 -74.27,4.95 -62.72,9.91z"/>
   <path class="fil0" d="M5009.09 3919.79c62.71,39.61 133.68,465.39 82.52,485.2 -11.55,4.95 8.25,8.25 44.56,8.25 36.31,0 56.11,-3.3 46.21,-8.25 -57.76,-23.11 18.15,-424.14 90.77,-480.25 23.11,-18.15 21.46,-19.8 -14.85,-19.8 -29.71,0 -39.61,9.91 -41.26,37.96 -1.65,19.8 -16.5,80.87 -31.35,135.33l-29.71 99.02 -31.36 -113.87c-16.5,-62.72 -28.06,-123.78 -23.1,-136.98 6.6,-14.85 -8.25,-21.46 -52.81,-21.46 -39.61,0 -52.81,4.95 -39.61,14.85l0 -0z"/>
   <path class="fil0" d="M5355.67 3932.99c-64.36,74.27 -46.21,158.43 54.46,262.41 47.86,49.51 67.67,82.52 67.67,120.48 3.3,110.57 -97.37,132.03 -141.93,29.71l-23.11 -52.81 -1.65 61.07c-1.65,46.21 3.3,59.41 21.45,52.81 13.2,-4.95 28.06,-1.65 34.65,8.25 16.51,29.7 89.12,19.8 123.78,-14.85 23.11,-23.11 33.01,-54.46 33.01,-105.62 0,-62.72 -9.9,-84.17 -74.26,-155.13 -59.41,-66.01 -74.26,-94.07 -74.26,-141.93 0,-97.37 79.21,-102.32 127.07,-8.25 19.8,37.96 21.45,36.31 21.45,-26.4 0,-42.91 -4.95,-57.76 -14.85,-42.91 -9.91,14.85 -18.16,16.5 -24.76,3.3 -18.16,-28.06 -100.67,-21.45 -128.73,9.9l0 -0.01z"/>
   <path class="fil0" d="M5575.16 3966c1.65,36.31 6.6,47.86 9.91,26.41 8.25,-46.21 47.86,-77.57 79.21,-64.36 19.8,6.6 24.76,49.51 24.76,239.3 0,204.64 -3.3,231.05 -28.06,237.65 -16.5,4.95 3.3,8.25 44.56,8.25 41.26,0 64.36,-3.3 54.46,-8.25 -16.5,-4.95 -21.45,-70.96 -21.45,-247.55 0,-237.65 0,-237.65 37.96,-232.7 26.41,3.3 37.96,18.16 41.26,51.16 3.3,24.76 11.55,41.26 18.16,37.96 6.6,-4.95 9.9,-31.36 4.95,-59.41l-6.6 -49.51 -130.37 0 -130.37 0 1.65 61.06 -0.01 0z"/>
   <path class="fil0" d="M5994.35 3947.84c-6.6,26.4 -13.2,57.76 -18.15,69.31 -3.3,11.55 1.65,33.01 9.9,49.51 26.41,49.51 80.87,325.12 64.36,330.07 -37.96,14.85 -8.25,29.71 44.56,23.11 33.01,-4.95 52.81,-11.55 42.91,-18.16 -8.25,-4.95 -39.61,-117.17 -67.67,-247.55 -29.71,-132.03 -56.11,-242.6 -59.41,-245.9 -3.3,-3.3 -11.55,14.85 -16.5,39.61l0 0z"/>
   <path class="fil0" d="M6197.33 3916.48c14.85,4.95 19.8,70.96 19.8,244.25 0,173.29 -4.95,239.3 -19.8,244.25 -11.55,4.95 28.06,9.91 87.47,9.91 100.67,1.65 110.57,-1.65 120.48,-36.31 13.2,-51.16 11.55,-61.07 -6.6,-61.07 -8.25,0 -16.5,18.16 -16.5,41.26 0,34.65 -8.25,41.26 -49.51,41.26l-49.51 0 0 -237.65c0,-174.94 4.95,-240.95 21.45,-245.9 9.91,-4.95 -13.2,-8.25 -54.46,-8.25 -41.26,0 -64.36,3.3 -52.81,8.25l0 0z"/>
   <path class="fil0" d="M6593.42 3919.79c16.5,9.9 19.8,69.31 16.5,254.15l-4.95 242.6 74.26 0c41.26,0 92.42,-11.55 112.22,-26.4 34.65,-23.11 36.31,-37.96 36.31,-221.15 0,-191.44 -1.65,-196.39 -42.91,-229.4 -31.36,-24.76 -67.67,-34.66 -128.73,-34.66 -51.16,0 -75.92,6.6 -62.71,14.85l0 -0zm155.13 29.7c24.76,23.11 29.7,52.81 29.7,206.29 0,191.44 -14.85,244.25 -66.01,244.25 -31.36,0 -33.01,-13.2 -33.01,-239.3 0,-249.2 6.6,-269.01 69.31,-211.25l0 0z"/>
   <path class="fil0" d="M6923.48 3916.48c24.76,9.9 29.71,483.55 3.3,483.55 -8.25,0 -16.5,4.95 -16.5,11.55 0,8.25 47.86,9.9 107.28,8.25l107.28 -6.6 -1.65 -51.16 -1.65 -52.81 -16.51 44.56c-11.55,36.31 -26.4,46.21 -64.36,46.21l-47.86 0 0 -115.52c0,-92.42 4.95,-115.52 24.76,-115.52 14.85,0 31.36,16.5 39.61,36.31 11.55,33.01 14.85,28.06 19.8,-33.01 4.95,-37.96 1.65,-69.31 -4.95,-69.31 -8.25,0 -13.2,11.55 -13.2,24.76 0,13.2 -14.85,24.76 -33.01,24.76 -29.7,0 -33.01,-11.55 -33.01,-115.52 0,-112.22 1.65,-115.52 41.26,-115.52 33.01,0 47.86,13.2 66.01,52.81l23.11 54.46 1.65 -62.71 0 -61.07 -110.57 1.65c-62.72,0 -102.32,4.95 -90.77,9.9l0 -0.01z"/>
   <path class="fil0" d="M7187.54 3916.48c14.85,4.95 19.8,70.96 19.8,244.25 0,173.29 -4.95,239.3 -19.8,244.25 -11.55,4.95 11.55,9.91 52.81,9.91 44.56,0 66.01,-4.95 52.81,-13.2 -31.36,-19.8 -31.36,-462.09 0,-481.9 13.2,-9.91 -6.6,-13.2 -52.81,-13.2 -41.26,0 -64.36,4.95 -52.81,9.9l0 -0z"/>
   <path class="fil0" d="M7380.63 3921.44c4.95,8.25 -13.2,59.41 -41.26,113.88l-49.51 99.02 41.26 127.08c21.45,70.96 36.31,133.68 31.35,141.93 -4.95,6.6 33.01,13.2 84.17,13.2 56.11,0 89.12,-6.6 82.52,-16.5 -4.95,-8.25 -4.95,-41.26 1.65,-74.26 8.25,-47.86 18.16,-57.76 54.46,-59.41 39.61,-3.3 41.26,-3.3 4.95,-9.91 -36.31,-6.6 -37.96,-13.2 -29.7,-92.42 8.25,-77.57 4.95,-74.26 -23.11,37.96 -18.16,67.67 -31.36,140.28 -33.01,160.08 0,28.06 -9.91,37.96 -37.96,37.96 -34.65,0 -44.56,-16.5 -85.81,-158.43l-46.21 -158.44 31.35 -59.41c16.5,-33.01 44.56,-72.61 61.07,-89.12 26.4,-28.06 26.4,-29.7 -14.85,-29.7 -23.11,0 -37.96,6.6 -31.36,16.5l-0 0z"/>
   <path class="fil0" d="M7591.87 3970.95c-8.25,41.26 -9.9,77.57 -4.95,82.52 4.95,4.95 24.76,82.52 44.56,173.29 23.11,117.17 28.06,168.33 16.5,176.59 -29.7,18.15 -6.6,23.11 62.72,11.55 36.31,-4.95 54.46,-11.55 39.61,-13.2 -19.8,-1.65 -36.31,-54.46 -70.96,-221.14 -59.41,-287.16 -67.67,-305.31 -87.46,-209.59l-0.01 0z"/>
   <path class="fil0" d="M7806.42 3923.09c24.76,14.85 28.06,44.56 28.06,245.9 0,166.69 -4.95,231.05 -19.8,236 -11.55,4.95 28.06,9.91 90.77,9.91l110.57 1.65 0 -49.51c0,-28.06 -6.6,-49.51 -16.5,-49.51 -8.25,0 -16.5,18.15 -16.5,41.26 0,34.65 -8.25,41.26 -49.51,41.26l-49.51 0 0 -237.65c0,-174.93 4.95,-240.95 21.45,-245.9 9.9,-4.95 -13.2,-9.91 -54.46,-9.91 -57.76,0 -67.66,3.3 -44.56,16.51z"/>
   <path class="fil0" d="M8062.22 3916.48c14.85,4.95 19.8,70.96 19.8,244.25 0,173.29 -4.95,239.3 -19.8,244.25 -11.55,4.95 24.76,9.91 80.87,9.91 90.77,1.65 105.62,-3.3 135.33,-41.26 57.76,-72.61 41.26,-158.43 -36.3,-199.69 -28.06,-14.85 -28.06,-18.16 11.55,-44.56 34.66,-21.45 42.91,-41.26 42.91,-92.42 0,-89.12 -56.11,-132.03 -171.64,-130.37 -46.21,0 -74.26,4.95 -62.71,9.9l0 -0zm158.43 41.26c51.16,72.61 13.2,194.74 -59.41,194.74 -23.1,0 -29.7,-8.25 -23.1,-26.41 4.95,-14.85 9.9,-66.01 9.9,-115.52 0,-99.02 26.41,-118.83 72.61,-52.81l0 -0zm6.6 231.05c26.4,26.4 26.4,165.04 0,191.44 -11.55,11.55 -33.01,19.8 -47.86,19.8 -23.11,0 -29.7,-19.8 -34.66,-115.52 -4.95,-107.27 -3.3,-115.52 29.71,-115.52 18.15,0 41.26,8.25 52.81,19.8z"/>
   <path class="fil0" d="M5946.48 4135.98c-6.6,31.36 -19.8,99.02 -29.7,148.53 -9.91,49.51 -28.06,99.02 -41.26,108.92 -18.16,14.85 -14.85,19.8 19.8,26.41 23.11,4.95 41.26,1.65 41.26,-4.95 0,-8.25 -6.6,-14.85 -14.85,-14.85 -6.6,0 -4.95,-29.7 3.3,-66.01 14.85,-51.16 26.4,-66.02 59.41,-70.96l42.91 -6.6 -44.56 -3.3c-41.26,-1.65 -42.91,-3.3 -28.06,-61.07 9.91,-31.35 14.85,-70.96 9.91,-85.81 -3.3,-16.5 -9.91,-3.3 -18.16,29.7z"/>
  </g>
 </g>
</svg>
