<?xml version="1.0" encoding="UTF-8"?>
<svg xmlns="http://www.w3.org/2000/svg" xmlns:xlink="http://www.w3.org/1999/xlink" width="1029px" height="461px" viewBox="0 0 516 231" version="1.1">
<g id="surface1">
<path style=" stroke:none;fill-rule:nonzero;fill:rgb(100%,100%,100%);fill-opacity:1;" d="M 121.144531 12.1875 C 121.144531 14.675781 121.910156 15.921875 122.675781 15.300781 C 123.59375 14.472656 123.902344 13.226562 123.59375 12.394531 C 123.136719 11.566406 124.359375 10.738281 126.199219 10.738281 C 128.800781 10.320312 127.882812 12.1875 121.757812 20.28125 C 116.703125 26.917969 114.101562 29.199219 113.796875 27.125 C 113.488281 25.46875 113.949219 23.183594 114.867188 21.941406 C 117.164062 18.828125 117.011719 16.960938 114.101562 15.507812 C 112.265625 14.679688 111.804688 15.09375 112.570312 17.375 C 113.640625 21.320312 111.039062 30.863281 108.894531 30.863281 C 107.824219 30.863281 108.128906 28.789062 109.507812 25.261719 C 112.570312 17.167969 109.8125 9.285156 104.453125 11.152344 C 96.644531 13.640625 92.050781 16.960938 92.050781 20.28125 C 92.050781 22.976562 90.519531 23.394531 83.015625 22.976562 C 75.207031 22.355469 73.675781 22.769531 72.300781 26.296875 C 70.921875 30.03125 69.847656 30.238281 65.714844 28.785156 C 60.050781 26.503906 56.679688 30.445312 57.140625 39.160156 C 57.445312 49.945312 56.832031 53.472656 53.769531 54.71875 C 52.085938 55.339844 50.097656 57.621094 49.332031 59.699219 C 47.644531 63.640625 48.871094 72.972656 50.707031 71.316406 C 52.394531 69.863281 57.597656 78.367188 56.21875 80.234375 C 55.609375 81.066406 54.078125 79.820312 52.851562 77.746094 C 51.628906 75.464844 50.707031 74.425781 50.707031 75.257812 C 50.707031 76.292969 49.023438 75.464844 46.878906 73.597656 C 41.675781 69.035156 40.757812 69.242188 37.082031 77.746094 C 32.945312 87.289062 33.101562 92.0625 37.691406 98.492188 C 42.59375 105.132812 42.441406 105.546875 37.082031 105.546875 C 34.476562 105.546875 32.027344 106.582031 31.566406 107.828125 C 29.882812 111.148438 31.722656 112.390625 34.9375 109.902344 C 37.386719 108.246094 38.152344 108.867188 39.53125 114.054688 C 41.519531 120.898438 39.375 122.351562 36.925781 115.921875 C 35.394531 111.976562 35.089844 111.976562 32.945312 114.882812 C 30.957031 117.371094 30.800781 118.824219 32.332031 121.105469 C 33.40625 122.765625 34.9375 124.21875 35.703125 124.21875 C 36.621094 124.21875 36.46875 122.765625 35.394531 121.105469 C 33.097656 117.371094 35.550781 116.957031 38.152344 120.484375 C 40.90625 124.21875 40.449219 125.460938 34.9375 129.820312 C 31.414062 132.722656 29.882812 135.628906 29.578125 139.984375 C 29.269531 145.171875 30.957031 148.074219 40.296875 160.109375 C 50.25 172.761719 51.167969 174.421875 48.871094 176.914062 C 45.808594 180.023438 47.1875 183.136719 51.628906 183.757812 C 55.914062 184.378906 57.90625 174.628906 53.925781 172.972656 C 52.546875 172.347656 47.035156 165.917969 41.523438 158.449219 C 33.710938 147.867188 32.335938 144.964844 34.324219 143.71875 C 37.539062 142.058594 49.175781 154.300781 49.175781 159.277344 C 49.175781 161.351562 51.015625 165.085938 53.3125 167.992188 C 55.914062 171.105469 56.679688 171.519531 55.300781 169.03125 C 53.3125 165.503906 53.3125 165.085938 55.300781 166.125 C 56.527344 166.539062 57.75 168.824219 57.75 171.105469 C 57.90625 173.179688 58.519531 176.707031 59.128906 178.574219 C 60.203125 182.308594 56.066406 186.457031 50.863281 186.457031 C 47.035156 186.457031 43.972656 179.816406 46.269531 176.707031 C 47.492188 175.046875 47.339844 174.007812 46.269531 172.972656 C 43.664062 170.898438 42.746094 176.707031 44.429688 182.929688 C 45.65625 186.871094 47.1875 188.53125 49.941406 188.53125 C 52.699219 188.53125 53.925781 189.984375 54.691406 193.511719 C 55.300781 197.453125 57.445312 199.109375 66.785156 202.429688 C 73.066406 204.714844 77.8125 205.75 77.351562 204.714844 C 76.894531 203.882812 75.363281 203.054688 73.984375 203.054688 C 71.992188 203.054688 71.839844 202.636719 73.371094 201.1875 C 74.902344 199.941406 74.136719 198.902344 70.460938 197.035156 C 63.570312 193.71875 60.96875 194.546875 67.550781 197.867188 C 74.75 201.601562 71.6875 201.601562 62.957031 198.074219 C 57.90625 195.792969 57.140625 194.960938 59.894531 194.960938 C 62.804688 194.753906 63.109375 194.132812 61.578125 192.886719 C 60.046875 191.433594 60.96875 191.019531 64.640625 191.226562 C 70.15625 191.644531 71.53125 192.679688 78.578125 201.394531 C 81.027344 204.710938 83.78125 207.203125 84.546875 207.203125 C 85.3125 207.203125 85.621094 209.484375 85.007812 212.179688 C 84.394531 215.5 84.855469 217.367188 86.539062 218.199219 C 87.917969 219.027344 88.988281 218.613281 88.988281 217.574219 C 88.988281 216.332031 89.753906 215.5 90.671875 215.5 C 91.59375 215.5 92.050781 216.953125 91.4375 218.613281 C 90.367188 222.554688 93.582031 222.554688 97.5625 218.820312 C 100.320312 215.914062 100.320312 215.707031 96.339844 214.464844 C 93.890625 213.632812 90.980469 213.425781 89.753906 214.257812 C 88.222656 215.085938 87.613281 214.257812 87.917969 211.351562 C 88.53125 205.75 90.519531 203.46875 90.519531 208.449219 C 90.519531 211.558594 90.828125 211.765625 92.050781 209.277344 C 93.125 206.789062 93.738281 206.789062 96.339844 209.898438 C 98.023438 211.972656 99.863281 213.425781 100.628906 213.21875 C 101.394531 213.011719 103.230469 213.425781 104.914062 214.464844 C 109.660156 217.367188 143.960938 214.046875 148.09375 210.316406 C 150.085938 208.65625 151.921875 207.410156 152.230469 207.617188 C 152.382812 208.03125 153.761719 206.789062 155.140625 205.128906 C 157.589844 202.222656 157.589844 201.808594 155.140625 199.320312 C 152.382812 196.621094 150.085938 196 150.390625 198.28125 C 151.003906 203.261719 149.78125 204.296875 144.574219 203.46875 C 137.988281 202.429688 132.476562 196.828125 137.988281 196.828125 C 139.828125 196.828125 140.746094 197.660156 140.285156 198.902344 C 139.828125 199.941406 140.441406 200.980469 141.664062 200.980469 C 144.726562 200.980469 144.878906 197.660156 141.816406 196 C 140.59375 195.378906 139.519531 192.886719 139.519531 190.605469 C 139.519531 188.324219 138.753906 186.457031 137.835938 186.457031 C 136.917969 186.457031 136.457031 188.324219 136.917969 190.605469 C 137.375 192.886719 137.070312 194.339844 136.304688 193.511719 C 135.539062 192.886719 134.925781 193.304688 134.925781 194.546875 C 134.925781 195.585938 133.703125 197.035156 132.324219 197.453125 C 129.875 198.28125 129.875 198.488281 132.171875 198.699219 C 133.855469 198.90625 134.46875 200.148438 133.855469 203.054688 C 133.242188 206.582031 131.710938 207.203125 125.128906 207.203125 C 118.390625 207.203125 116.707031 206.375 112.878906 200.980469 C 110.429688 197.453125 109.050781 193.925781 109.664062 193.097656 C 110.273438 192.265625 111.195312 192.886719 111.5 194.339844 C 111.960938 195.585938 112.878906 196.414062 113.644531 195.585938 C 114.410156 194.964844 115.023438 196 115.023438 197.660156 C 115.023438 201.394531 117.472656 202.015625 118.851562 198.90625 C 119.308594 197.660156 120.535156 196.832031 121.300781 196.832031 C 122.21875 196.832031 122.523438 197.660156 122.066406 198.699219 C 121.453125 199.734375 121.605469 200.980469 122.21875 201.601562 C 122.984375 202.019531 122.679688 202.019531 121.609375 201.808594 C 120.535156 201.394531 119.308594 202.015625 118.851562 203.054688 C 117.777344 205.335938 121.300781 205.335938 128.039062 203.054688 L 132.632812 201.394531 L 128.039062 201.1875 L 123.445312 200.773438 L 127.121094 196.832031 C 129.109375 194.546875 131.5625 192.683594 132.785156 192.683594 C 134.011719 192.683594 134.929688 191.644531 134.929688 190.398438 C 134.929688 189.363281 134.011719 188.949219 133.09375 189.777344 C 131.558594 191.023438 131.558594 190.816406 132.9375 188.324219 C 134.46875 185.628906 134.46875 185.007812 132.632812 185.007812 C 131.40625 185.007812 130.335938 186.25 130.335938 187.910156 C 130.335938 189.363281 129.570312 190.609375 128.652344 190.609375 C 127.578125 190.609375 127.425781 189.15625 128.039062 186.875 C 130.949219 177.332031 130.792969 176.085938 126.355469 176.085938 C 122.066406 176.292969 122.066406 176.292969 125.128906 178.78125 C 128.34375 181.273438 128.496094 186.457031 125.4375 186.457031 C 124.515625 186.457031 124.363281 185.007812 124.824219 183.140625 C 125.742188 179.820312 124.824219 180.234375 117.78125 186.875 C 112.265625 192.058594 112.265625 189.363281 117.625 181.6875 L 121.914062 175.878906 L 116.859375 177.125 L 111.960938 178.160156 L 111.960938 165.921875 C 111.960938 153.890625 111.808594 153.472656 107.367188 152.230469 L 102.925781 150.984375 L 103.84375 131.070312 C 104.457031 117.167969 104.304688 110.945312 102.925781 109.90625 C 100.015625 107.417969 102.773438 95.386719 107.519531 91.027344 C 109.816406 88.746094 112.878906 83.769531 114.101562 80.242188 C 116.859375 72.773438 117.320312 61.984375 114.867188 61.984375 C 113.796875 61.984375 114.101562 59.910156 115.789062 56.589844 C 117.164062 53.6875 117.929688 50.78125 117.472656 50.160156 C 117.011719 49.539062 115.789062 51.40625 114.867188 54.515625 C 113.183594 59.289062 110.429688 61.984375 110.429688 58.664062 C 110.429688 56.382812 123.136719 37.089844 124.667969 37.089844 C 125.585938 37.089844 124.363281 39.785156 121.914062 43.3125 C 119.460938 46.632812 118.238281 49.539062 119.003906 49.539062 C 119.921875 49.539062 122.523438 46.632812 124.976562 43.3125 C 128.34375 38.542969 128.957031 36.46875 127.578125 34.601562 C 126.199219 32.734375 124.820312 33.355469 121.914062 37.089844 C 119.769531 39.785156 118.085938 41.03125 118.085938 39.992188 C 118.085938 36.882812 127.882812 25.679688 130.488281 25.679688 C 131.710938 25.679688 135.082031 23.1875 137.992188 20.078125 C 144.882812 12.816406 142.738281 9.496094 130.335938 8.667969 C 121.914062 8.042969 121.148438 8.25 121.148438 12.195312 L 121.148438 12.1875 Z M 108.894531 18.410156 C 108.894531 22.769531 101.851562 28.785156 96.644531 28.785156 C 94.503906 28.785156 93.582031 27.539062 93.582031 24.011719 C 93.582031 19.035156 97.257812 15.300781 103.535156 13.640625 C 107.671875 12.601562 108.894531 13.847656 108.894531 18.410156 Z M 127.269531 22.5625 C 122.675781 28.164062 118.390625 32.726562 117.777344 32.933594 C 117.011719 32.933594 116.550781 35.214844 116.550781 38.121094 C 116.550781 42.269531 115.785156 43.304688 112.726562 43.304688 C 110.582031 43.304688 108.285156 41.648438 107.367188 39.15625 C 106.140625 36.042969 106.445312 34.800781 108.898438 32.933594 C 110.582031 31.6875 112.570312 31.273438 113.335938 31.6875 C 114.101562 32.3125 118.390625 28.371094 122.832031 22.558594 C 127.425781 16.960938 132.171875 12.1875 133.398438 12.1875 C 134.621094 12.1875 131.867188 16.75 127.273438 22.558594 Z M 137.988281 16.542969 C 131.558594 23.597656 127.730469 25.257812 133.394531 18.621094 C 136.304688 15.09375 139.519531 12.394531 140.285156 12.1875 C 141.203125 12.1875 140.132812 14.054688 137.988281 16.542969 Z M 86.691406 26.710938 C 87.457031 28.371094 83.324219 68.203125 82.253906 69.652344 C 81.945312 70.070312 81.027344 63.636719 79.953125 55.546875 C 78.117188 41.855469 78.117188 40.609375 80.875 36.460938 C 86.386719 28.160156 86.539062 25.464844 81.179688 32.3125 C 75.207031 39.78125 71.074219 41.023438 68.316406 35.628906 C 67.09375 33.347656 66.175781 32.933594 65.410156 34.59375 C 64.796875 36.042969 65.101562 37.082031 65.867188 37.082031 C 66.785156 37.082031 67.550781 38.535156 67.550781 40.195312 C 67.550781 44.757812 64.335938 43.929688 63.417969 39.363281 C 62.957031 36.667969 61.886719 35.628906 60.355469 36.460938 C 58.671875 37.289062 58.210938 36.875 58.671875 34.800781 C 59.4375 31.480469 65.867188 30.652344 68.625 33.347656 C 69.847656 34.59375 71.226562 33.554688 72.757812 30.234375 C 74.59375 26.710938 76.738281 25.257812 80.566406 25.050781 C 83.476562 24.84375 86.234375 25.671875 86.691406 26.710938 Z M 92.050781 38.535156 C 92.050781 52.644531 91.285156 52.433594 90.0625 37.496094 C 89.449219 31.273438 89.753906 26.710938 90.519531 26.710938 C 91.4375 26.710938 92.050781 31.894531 92.050781 38.535156 Z M 101.390625 46.625 C 96.492188 65.710938 95.574219 65.296875 98.636719 45.175781 C 100.320312 34.59375 103.84375 25.257812 105.375 27.332031 C 105.679688 27.957031 103.84375 36.460938 101.390625 46.625 Z M 97.257812 40.609375 C 96.492188 46.210938 95.878906 54.507812 95.878906 59.28125 C 95.878906 64.050781 95.421875 67.371094 94.808594 66.957031 C 94.042969 66.335938 93.582031 68.410156 93.582031 71.519531 C 93.582031 74.632812 93.125 76.707031 92.664062 75.875 C 92.050781 75.253906 92.207031 64.675781 92.816406 52.640625 C 93.582031 35.214844 94.347656 30.859375 96.1875 30.859375 C 98.175781 30.859375 98.332031 32.519531 97.257812 40.609375 Z M 62.191406 41.230469 C 62.652344 42.269531 62.5 43.308594 61.582031 43.308594 C 60.816406 43.308594 59.589844 42.269531 59.128906 41.230469 C 58.671875 39.988281 58.824219 39.15625 59.742188 39.15625 C 60.507812 39.15625 61.734375 39.988281 62.191406 41.230469 Z M 108.589844 45.589844 C 109.96875 45.796875 112.109375 45.796875 113.335938 45.589844 C 114.5625 45.171875 113.640625 48.078125 111.191406 52.433594 C 106.292969 61.148438 104.300781 62.394531 108.128906 54.507812 C 109.507812 51.605469 110.425781 48.699219 110.121094 48.285156 C 109.660156 47.871094 107.058594 53.058594 104.300781 60.109375 C 96.1875 79.195312 94.960938 78.574219 100.167969 58.035156 C 102.921875 47.664062 105.21875 40.609375 105.527344 42.269531 C 105.832031 43.929688 107.210938 45.589844 108.589844 45.589844 Z M 78.730469 59.488281 C 81.027344 73.386719 81.179688 77.328125 79.800781 79.195312 C 78.269531 81.0625 78.117188 81.0625 78.882812 79.195312 C 79.496094 77.746094 77.503906 68.824219 74.441406 59.488281 C 71.53125 50.152344 69.082031 42.269531 69.082031 41.855469 C 69.082031 41.230469 70.613281 41.230469 72.453125 41.648438 C 75.207031 42.269531 76.128906 44.964844 78.730469 59.488281 Z M 90.367188 65.503906 C 90.214844 73.386719 89.449219 76.5 88.070312 76.5 C 86.84375 76.5 85.925781 77.328125 85.925781 78.574219 C 85.925781 79.613281 86.539062 80.648438 87.304688 80.648438 C 88.835938 80.648438 92.050781 91.851562 92.050781 97.453125 C 92.050781 100.148438 90.980469 101.394531 88.683594 101.394531 C 85.46875 101.394531 85.46875 101.394531 88.222656 97.246094 C 90.980469 93.097656 90.980469 92.890625 88.375 89.363281 C 86.234375 86.871094 85.3125 86.457031 84.855469 88.324219 C 84.394531 89.777344 83.171875 91.023438 81.945312 91.023438 C 80.109375 91.023438 79.953125 91.851562 81.640625 95.585938 C 82.710938 98.28125 83.324219 100.980469 83.171875 101.808594 C 83.015625 102.847656 85.160156 103.46875 88.070312 103.46875 C 91.4375 103.46875 94.960938 105.335938 97.871094 108.65625 L 102.464844 113.839844 L 101.851562 139.152344 C 101.542969 153.257812 100.625 164.875 99.859375 165.289062 C 99.09375 165.707031 97.257812 161.140625 95.878906 155.332031 C 93.890625 147.035156 93.429688 141.226562 94.347656 128.984375 C 94.960938 120.480469 95.726562 113.839844 96.03125 114.464844 C 96.339844 114.878906 97.105469 125.042969 97.5625 136.871094 C 98.023438 148.695312 98.789062 158.859375 99.25 159.480469 C 99.554688 160.105469 99.707031 150.148438 99.554688 137.699219 C 99.097656 116.746094 98.789062 114.464844 95.421875 111.144531 C 92.207031 107.410156 91.746094 107.410156 88.222656 110.523438 C 86.234375 112.390625 82.863281 114.046875 81.027344 114.046875 C 77.964844 114.464844 77.8125 114.464844 80.566406 115.292969 C 85.46875 116.539062 91.4375 142.261719 90.828125 158.859375 C 90.519531 166.121094 89.753906 171.929688 89.140625 171.929688 C 87.765625 171.929688 76.738281 123.175781 76.738281 117.367188 C 76.738281 115.085938 77.8125 110.9375 79.1875 107.824219 C 81.640625 102.429688 81.488281 101.808594 72.300781 81.269531 C 67.09375 69.859375 62.957031 59.902344 62.957031 59.070312 C 62.957031 54.921875 66.480469 59.488281 72.910156 72.347656 C 79.496094 85.417969 84.550781 91.4375 82.40625 83.96875 C 81.945312 82.515625 82.097656 80.441406 82.863281 79.402344 C 83.628906 78.367188 85.007812 69.859375 86.234375 60.316406 C 87.765625 46.003906 88.375 44.136719 89.296875 48.90625 C 89.90625 52.019531 90.367188 59.695312 90.367188 65.503906 Z M 73.0625 61.148438 C 75.972656 69.652344 78.269531 77.328125 78.269531 77.953125 C 78.269531 78.574219 75.511719 73.386719 72.144531 66.542969 C 68.46875 58.65625 66.480469 52.226562 66.9375 50.152344 C 67.398438 48.078125 66.632812 48.90625 65.101562 52.019531 C 61.121094 60.316406 58.363281 60.941406 58.363281 53.886719 C 58.363281 46.832031 59.28125 45.382812 64.03125 45.382812 C 67.09375 45.382812 68.625 47.871094 73.0625 61.148438 Z M 56.832031 59.695312 C 56.832031 61.976562 57.597656 64.46875 58.363281 65.089844 C 59.285156 65.710938 59.894531 67.578125 59.894531 68.824219 C 59.894531 70.273438 58.058594 68.617188 56.066406 65.503906 C 53.925781 62.183594 52.546875 58.65625 53.003906 57.621094 C 54.535156 54.300781 56.832031 55.546875 56.832031 59.695312 Z M 107.976562 70.898438 C 105.527344 74.632812 102.003906 80.441406 100.320312 83.550781 C 97.410156 88.738281 96.644531 88.945312 93.738281 86.457031 C 88.835938 82.308594 88.53125 78.574219 93.125 78.574219 C 96.644531 78.574219 96.800781 78.988281 94.960938 82.101562 C 93.125 85.003906 93.125 85.417969 95.113281 84.382812 C 96.339844 83.96875 97.71875 81.683594 97.871094 79.402344 C 98.636719 73.59375 109.203125 59.488281 111.039062 61.976562 C 111.804688 63.015625 110.734375 66.542969 107.976562 70.898438 Z M 56.527344 70.066406 C 59.28125 74.632812 61.425781 78.988281 61.425781 79.820312 C 61.425781 81.894531 55.453125 74.21875 51.933594 67.578125 C 47.339844 58.863281 51.167969 60.941406 56.527344 70.066406 Z M 69.542969 80.234375 C 80.109375 102.640625 80.875 105.128906 77.65625 106.789062 C 76.277344 107.410156 75.207031 109.484375 75.207031 111.144531 C 75.207031 112.804688 74.59375 113.425781 73.675781 112.804688 C 72.910156 112.183594 72.144531 110.105469 72.144531 108.449219 C 72.144531 106.789062 72.910156 105.957031 73.675781 106.582031 C 74.59375 107.203125 75.207031 106.375 75.207031 104.714844 C 75.207031 103.054688 74.59375 100.980469 73.675781 100.355469 C 72.910156 99.734375 72.144531 99.941406 72.144531 100.773438 C 72.144531 101.808594 70.765625 102.640625 68.929688 102.847656 C 67.09375 103.054688 66.019531 102.226562 66.480469 100.773438 C 67.246094 97.660156 72.144531 97.246094 74.902344 99.941406 C 75.820312 100.980469 76.738281 101.1875 76.738281 100.148438 C 76.738281 99.113281 73.371094 95.378906 69.390625 92.058594 C 64.949219 88.117188 62.191406 84.175781 62.039062 81.6875 C 61.886719 79.402344 61.734375 77.121094 61.425781 76.5 C 60.96875 75.046875 60.203125 61.980469 60.660156 61.980469 C 60.816406 61.980469 64.949219 70.277344 69.542969 80.234375 Z M 111.34375 78.367188 C 109.046875 82.722656 105.21875 88.945312 102.617188 92.265625 L 97.871094 98.28125 L 98.941406 93.097656 C 99.554688 90.191406 102.464844 84.382812 105.523438 80.027344 C 108.589844 75.878906 110.425781 72.351562 109.660156 72.351562 C 109.046875 72.351562 109.660156 70.484375 111.34375 67.996094 C 116.089844 60.734375 116.089844 69.03125 111.34375 78.367188 Z M 45.960938 76.082031 C 47.1875 76.5 50.097656 78.574219 52.394531 80.855469 C 57.140625 85.210938 59.128906 86.042969 57.445312 82.308594 C 56.832031 80.855469 56.988281 80.648438 58.210938 81.476562 C 59.128906 82.308594 59.589844 83.761719 59.285156 84.589844 C 58.824219 85.417969 60.660156 87.910156 63.417969 89.984375 C 66.632812 92.679688 67.550781 94.132812 66.019531 94.753906 C 64.796875 95.378906 62.5 96.621094 60.816406 97.660156 C 59.128906 98.90625 58.363281 98.90625 58.824219 97.867188 C 59.4375 96.828125 56.679688 91.644531 52.851562 86.664062 C 47.492188 79.613281 45.042969 77.742188 41.980469 78.160156 C 38.304688 78.988281 38 78.574219 39.988281 75.667969 C 41.0625 73.59375 42.4375 72.972656 42.898438 73.800781 C 43.359375 74.632812 44.734375 75.667969 45.960938 76.085938 Z M 41.214844 86.871094 C 37.234375 94.339844 35.550781 94.753906 36.46875 88.117188 C 37.234375 83.554688 38.917969 81.894531 43.511719 80.855469 C 44.125 80.855469 43.207031 83.34375 41.214844 86.871094 Z M 49.941406 88.53125 C 49.484375 89.152344 51.625 93.09375 54.6875 97.453125 C 58.058594 102.222656 59.589844 105.542969 58.515625 106.371094 C 57.597656 107.203125 57.292969 110.105469 57.75 113.011719 C 58.824219 118.40625 56.679688 119.648438 53.921875 115.085938 C 51.933594 111.972656 53.3125 104.921875 55.453125 106.789062 C 56.21875 107.410156 56.832031 106.996094 56.832031 105.75 C 56.832031 102.429688 50.707031 98.902344 47.03125 100.148438 C 45.042969 100.769531 42.4375 100.148438 41.0625 98.695312 C 38.765625 96.414062 38.917969 95.585938 42.4375 89.363281 C 45.65625 83.96875 46.878906 83.136719 48.5625 85.003906 C 49.789062 86.457031 50.402344 87.910156 49.941406 88.53125 Z M 95.726562 90.191406 C 97.105469 90.8125 97.714844 92.472656 97.105469 93.71875 C 96.644531 94.753906 97.410156 97.035156 98.941406 98.695312 C 101.238281 100.769531 101.390625 102.015625 100.011719 103.882812 C 98.636719 105.75 97.714844 105.75 96.339844 103.882812 C 94.960938 102.015625 94.960938 101.394531 96.492188 101.394531 C 97.5625 101.394531 97.871094 100.355469 97.410156 99.320312 C 96.796875 98.074219 95.878906 97.660156 95.113281 98.28125 C 94.5 98.695312 93.582031 97.035156 93.277344 94.132812 C 92.355469 88.324219 92.355469 88.53125 95.726562 90.191406 Z M 87.304688 95.378906 C 86.234375 98.28125 85.160156 99.113281 84.089844 97.660156 C 82.097656 94.964844 83.78125 91.023438 86.84375 91.023438 C 88.683594 91.023438 88.835938 91.851562 87.304688 95.378906 Z M 64.488281 101.1875 C 63.265625 104.714844 63.570312 105.335938 66.480469 105.957031 C 69.390625 106.582031 70.921875 110.9375 77.964844 138.738281 C 82.40625 156.785156 85.773438 173.175781 85.3125 176.078125 C 84.699219 180.644531 84.855469 180.851562 86.691406 177.53125 C 88.527344 174.210938 88.683594 174.210938 90.671875 178.359375 C 92.664062 182.09375 92.816406 180.644531 92.507812 165.289062 L 92.050781 148.070312 L 95.113281 159.480469 C 97.5625 169.441406 97.714844 171.304688 95.726562 174.210938 C 93.273438 177.945312 94.347656 180.226562 98.328125 180.226562 C 102.003906 180.226562 106.75 192.261719 104.453125 195.371094 C 103.226562 197.03125 102.769531 196.824219 102.769531 194.542969 C 102.769531 193.089844 101.390625 189.355469 99.707031 186.453125 C 97.867188 183.546875 96.949219 182.71875 97.5625 184.792969 C 98.328125 188.109375 98.019531 188.109375 94.039062 185.621094 C 91.742188 183.964844 87.609375 182.09375 84.851562 181.265625 C 80.414062 180.019531 80.105469 180.226562 81.023438 184.792969 C 81.484375 187.28125 82.097656 188.320312 82.554688 186.867188 C 83.167969 184.171875 90.519531 183.339844 90.519531 186.039062 C 90.519531 186.867188 88.375 188.734375 85.617188 190.1875 C 81.789062 192.054688 80.414062 192.054688 79.492188 189.980469 C 77.351562 185.414062 78.117188 180.851562 81.789062 177.324219 C 85.160156 174.007812 85.160156 174.007812 81.945312 175.042969 C 79.1875 176.078125 77.808594 174.210938 73.828125 164.667969 C 70.460938 156.785156 69.386719 152.015625 70.308594 149.941406 C 71.378906 147.449219 72.605469 149.941406 75.820312 159.691406 C 78.730469 168.820312 80.414062 171.929688 81.484375 170.476562 C 82.710938 168.820312 82.710938 167.160156 81.332031 164.253906 C 79.800781 160.9375 79.648438 160.9375 80.414062 164.046875 C 82.097656 171.929688 79.800781 167.160156 75.820312 155.332031 C 73.523438 148.488281 71.226562 142.886719 70.460938 142.886719 C 69.386719 142.886719 59.433594 119.859375 60.355469 119.027344 C 60.507812 118.820312 62.039062 117.371094 63.722656 116.125 C 66.632812 113.636719 66.632812 113.636719 63.261719 114.671875 C 60.355469 115.503906 59.894531 114.878906 60.660156 112.183594 C 61.273438 110.316406 61.730469 107.203125 61.730469 105.542969 C 61.578125 100.566406 62.804688 97.246094 64.488281 97.246094 C 65.558594 97.246094 65.714844 98.492188 64.488281 101.1875 Z M 51.320312 102.636719 C 52.546875 103.261719 53.15625 105.128906 52.699219 106.789062 C 52.085938 109.277344 51.472656 109.070312 49.789062 106.164062 C 47.492188 101.808594 47.035156 104.089844 49.175781 109.484375 C 50.25 112.390625 49.636719 114.464844 46.421875 118.613281 C 42.285156 124.007812 42.285156 124.007812 41.980469 119.441406 C 41.828125 116.953125 41.367188 113.011719 41.214844 110.9375 C 40.90625 108.238281 42.132812 105.75 44.582031 104.089844 C 49.175781 100.976562 48.410156 101.1875 51.320312 102.636719 Z M 92.816406 124.421875 L 91.746094 137.492188 L 88.835938 127.117188 C 87.152344 121.515625 85.925781 116.332031 85.925781 115.707031 C 85.925781 114.257812 92.511719 109.898438 93.429688 110.9375 C 93.734375 111.144531 93.429688 117.367188 92.816406 124.421875 Z M 53.464844 117.78125 C 56.832031 120.6875 52.394531 128.777344 48.410156 127.117188 C 43.96875 125.25 43.816406 124.628906 46.878906 120.066406 C 49.941406 115.5 50.554688 115.292969 53.464844 117.78125 Z M 60.8125 126.703125 C 61.273438 129.398438 63.109375 133.964844 64.796875 137.078125 L 67.703125 142.886719 L 62.039062 142.886719 C 58.515625 142.886719 55.609375 141.640625 54.382812 139.152344 C 51.320312 133.964844 51.78125 132.71875 56.066406 133.757812 C 58.363281 134.378906 59.894531 133.757812 59.894531 132.304688 C 59.894531 131.058594 58.515625 130.4375 56.832031 131.058594 C 53.464844 132.304688 52.699219 128.570312 55.609375 124.628906 C 58.210938 121.101562 59.589844 121.515625 60.8125 126.703125 Z M 47.644531 129.195312 C 51.78125 131.476562 52.085938 132.097656 49.789062 133.34375 C 48.105469 134.171875 45.960938 133.34375 43.96875 130.4375 C 40.296875 125.460938 40.90625 125.253906 47.644531 129.195312 Z M 37.386719 136.660156 C 35.242188 140.1875 32.792969 142.886719 32.179688 142.886719 C 30.035156 142.886719 32.640625 135.832031 36.007812 132.097656 C 40.90625 126.703125 41.828125 129.816406 37.386719 136.660156 Z M 45.5 137.285156 C 46.113281 138.113281 47.492188 137.699219 48.410156 136.660156 C 49.789062 135.210938 51.015625 136.039062 52.851562 139.566406 C 55.914062 146.207031 56.066406 152.429688 53.003906 154.089844 C 51.167969 154.917969 50.707031 153.464844 50.707031 148.070312 C 50.707031 144.335938 49.941406 140.394531 49.175781 139.773438 C 48.105469 138.945312 47.796875 140.1875 48.410156 143.507812 C 49.789062 150.769531 47.644531 151.597656 42.4375 145.996094 C 39.683594 143.09375 38.304688 139.980469 38.917969 138.113281 C 39.835938 135 43.511719 134.585938 45.5 137.285156 Z M 69.695312 148.070312 C 68.777344 150.976562 61.273438 152.015625 57.90625 149.730469 C 55.148438 147.65625 58.976562 144.960938 64.488281 144.960938 C 69.234375 144.960938 70.308594 145.582031 69.695312 148.070312 Z M 56.832031 158.445312 C 56.832031 161.558594 55.914062 163.632812 54.6875 163.632812 C 51.011719 163.632812 50.09375 159.066406 53.003906 155.957031 C 56.832031 152.429688 56.832031 152.429688 56.832031 158.445312 Z M 67.859375 156.785156 C 71.378906 162.386719 76.585938 177.117188 76.585938 181.472656 C 76.433594 186.246094 77.808594 194.957031 78.882812 196.410156 C 79.339844 197.03125 80.566406 196.410156 81.640625 195.371094 C 82.710938 194.335938 85.925781 192.054688 88.683594 190.601562 C 93.277344 188.113281 94.042969 188.320312 97.410156 192.675781 C 99.707031 195.582031 101.238281 199.9375 101.238281 203.464844 C 101.238281 210.308594 100.625 210.515625 93.582031 204.914062 C 90.671875 202.632812 89.601562 201.390625 91.285156 202.21875 C 97.714844 205.121094 100.320312 205.121094 95.726562 202.425781 C 93.121094 200.765625 88.683594 198.691406 85.773438 197.863281 L 80.566406 196.203125 L 84.394531 200.558594 C 90.824219 208.027344 85.925781 205.539062 78.269531 197.65625 C 73.523438 192.882812 68.929688 189.769531 65.253906 189.355469 C 58.515625 188.527344 57.140625 187.28125 59.589844 183.960938 C 60.8125 182.304688 61.886719 182.304688 63.570312 184.167969 C 64.640625 185.414062 66.9375 186.867188 68.46875 187.488281 C 70.152344 187.902344 72.757812 188.734375 74.441406 189.5625 C 76.890625 190.808594 77.042969 190.601562 75.207031 188.734375 C 73.980469 187.28125 70.460938 184.585938 67.550781 182.511719 C 61.730469 178.359375 56.679688 165.707031 60.8125 165.707031 C 61.886719 165.707031 62.496094 166.949219 62.191406 168.195312 C 61.578125 170.476562 71.839844 182.300781 74.289062 182.300781 C 75.820312 182.300781 71.074219 170.890625 68.316406 167.78125 C 66.9375 166.121094 66.324219 163.425781 66.785156 160.726562 C 67.550781 156.785156 67.550781 156.785156 66.019531 159.898438 C 63.417969 165.707031 58.363281 164.667969 58.363281 158.445312 C 58.363281 154.296875 59.128906 153.257812 61.886719 153.257812 C 63.875 153.257812 66.632812 154.917969 67.855469 156.785156 Z M 107.363281 155.125 C 107.363281 156.164062 106.292969 158.03125 105.066406 159.480469 C 103.074219 161.558594 102.769531 161.347656 102.769531 157.613281 C 102.769531 155.125 103.6875 153.257812 105.066406 153.257812 C 106.289062 153.257812 107.363281 154.089844 107.363281 155.125 Z M 110.121094 166.949219 C 109.8125 167.367188 107.976562 167.15625 106.136719 166.328125 L 102.617188 165.082031 L 106.136719 160.105469 L 109.660156 154.917969 L 110.121094 160.519531 C 110.425781 163.632812 110.425781 166.328125 110.121094 166.949219 Z M 69.082031 172.34375 L 72.605469 178.777344 L 68.625 174.832031 C 66.328125 172.757812 64.488281 169.648438 64.488281 168.195312 C 64.488281 164.460938 65.101562 165.082031 69.082031 172.34375 Z M 107.667969 170.269531 C 109.046875 171.722656 110.425781 174.835938 110.730469 177.117188 C 111.039062 179.8125 112.261719 181.058594 114.253906 180.644531 C 117.164062 180.226562 117.164062 180.226562 114.40625 183.132812 C 112.875 184.792969 111.957031 187.488281 112.417969 189.148438 C 112.875 191.015625 112.109375 191.847656 110.121094 191.640625 C 106.445312 191.222656 101.851562 181.265625 104.453125 179.191406 C 106.292969 177.53125 106.136719 177.324219 108.589844 184.378906 L 110.425781 189.5625 L 109.355469 184.378906 C 108.894531 181.472656 108.433594 177.53125 108.589844 175.25 C 108.589844 173.175781 108.28125 171.929688 107.824219 172.761719 C 107.363281 173.382812 105.832031 172.761719 104.453125 171.308594 C 102.308594 169.234375 102.308594 169.234375 103.84375 172.136719 C 106.292969 176.289062 104.609375 178.984375 101.546875 175.457031 C 99.554688 173.589844 99.402344 173.589844 100.320312 175.457031 C 100.933594 177.117188 100.472656 178.152344 99.09375 178.152344 C 95.574219 178.152344 96.03125 174.835938 100.015625 171.101562 C 104.148438 167.160156 104.609375 167.160156 107.671875 170.269531 Z M 53.769531 179.398438 C 53.769531 181.058594 53.15625 181.886719 52.238281 181.265625 C 51.472656 180.644531 50.707031 179.191406 50.707031 177.945312 C 50.707031 176.910156 51.472656 176.078125 52.238281 176.078125 C 53.15625 176.078125 53.769531 177.53125 53.769531 179.398438 Z M 126.042969 192.675781 C 126.808594 192.675781 126.960938 193.503906 126.503906 194.75 C 126.042969 195.789062 124.820312 196.824219 124.054688 196.824219 C 123.132812 196.824219 122.980469 195.789062 123.441406 194.75 C 124.664062 191.847656 122.214844 192.054688 120.074219 194.957031 C 119.152344 196.203125 117.621094 196.617188 116.550781 195.789062 C 115.324219 194.75 115.9375 192.675781 118.386719 189.148438 C 121.757812 184.167969 121.910156 184.167969 123.289062 188.320312 C 124.054688 190.808594 125.277344 192.675781 126.042969 192.675781 Z M 57.597656 190.601562 C 58.058594 191.640625 57.75 192.675781 56.984375 192.675781 C 56.066406 192.675781 55.300781 191.636719 55.300781 190.601562 C 55.300781 189.355469 55.609375 188.527344 55.914062 188.527344 C 56.375 188.527344 57.140625 189.355469 57.597656 190.601562 Z M 110.425781 201.390625 C 110.425781 202.632812 109.355469 202.839844 107.976562 202.21875 C 106.75 201.597656 106.136719 201.804688 106.597656 203.046875 C 107.058594 204.292969 106.445312 205.121094 105.21875 205.121094 C 102.308594 205.121094 102.15625 204.085938 104.453125 198.691406 C 105.679688 195.371094 106.445312 194.957031 108.28125 197.03125 C 109.507812 198.277344 110.425781 200.351562 110.425781 201.390625 Z M 137.988281 206.78125 C 137.988281 209.273438 138.445312 209.480469 139.824219 207.613281 C 140.898438 206.160156 143.347656 205.125 145.644531 205.125 C 149.320312 205.332031 149.472656 205.332031 146.410156 208.441406 C 144.570312 210.308594 141.664062 211.140625 139.367188 210.515625 C 137.066406 209.894531 134.773438 210.101562 134.3125 210.726562 C 133.699219 211.554688 128.035156 212.382812 121.449219 212.800781 C 113.027344 213.421875 110.273438 213.007812 111.957031 211.554688 C 113.179688 210.308594 118.847656 209.273438 124.664062 209.273438 C 134.007812 209.273438 134.925781 208.855469 134.925781 204.914062 C 134.925781 202.632812 135.691406 201.390625 136.457031 202.011719 C 137.375 202.632812 137.988281 204.914062 137.988281 206.78125 Z M 114.253906 204.914062 C 114.710938 205.953125 114.40625 207.40625 113.488281 208.234375 C 112.722656 208.855469 111.957031 208.234375 111.804688 206.78125 C 111.804688 204.707031 111.496094 204.707031 110.886719 206.574219 C 110.578125 208.027344 109.046875 209.273438 107.667969 209.273438 C 105.371094 209.273438 105.371094 209.6875 107.363281 211.347656 C 109.355469 213.007812 109.355469 213.421875 107.210938 213.421875 C 102.769531 213.421875 102.617188 210.726562 106.902344 206.785156 C 111.804688 202.632812 112.875 202.21875 114.253906 204.914062 Z M 96.644531 216.324219 C 96.644531 216.949219 96.03125 217.984375 95.113281 218.609375 C 94.347656 219.230469 93.582031 218.816406 93.582031 217.777344 C 93.582031 216.535156 94.347656 215.496094 95.113281 215.496094 C 96.03125 215.496094 96.644531 215.910156 96.644531 216.324219 Z M 96.644531 216.324219 "/>
<path style=" stroke:none;fill-rule:nonzero;fill:rgb(100%,100%,100%);fill-opacity:1;" d="M 62.960938 74.425781 C 63.878906 76.707031 64.949219 78.574219 65.410156 78.574219 C 65.714844 78.574219 65.410156 76.707031 64.492188 74.425781 C 63.570312 72.144531 62.5 70.277344 62.039062 70.277344 C 61.734375 70.277344 62.039062 72.144531 62.960938 74.425781 Z M 62.960938 74.425781 "/>
<path style=" stroke:none;fill-rule:nonzero;fill:rgb(100%,100%,100%);fill-opacity:1;" d="M 65.410156 85.007812 C 68.625 89.777344 68.929688 89.777344 68.472656 85.421875 C 68.164062 83.554688 66.785156 81.894531 65.410156 81.480469 C 62.804688 81.0625 62.804688 81.0625 65.410156 85.007812 Z M 65.410156 85.007812 "/>
<path style=" stroke:none;fill-rule:nonzero;fill:rgb(100%,100%,100%);fill-opacity:1;" d="M 65.867188 113.636719 C 67.398438 116.539062 70.613281 126.703125 73.066406 136.039062 C 75.363281 145.582031 77.507812 152.84375 77.8125 152.429688 C 78.117188 152.015625 76.128906 142.265625 73.371094 130.855469 C 70.003906 116.953125 67.398438 109.695312 65.714844 109.070312 C 63.417969 108.242188 63.417969 108.65625 65.867188 113.632812 Z M 65.867188 113.636719 "/>
<path style=" stroke:none;fill-rule:nonzero;fill:rgb(100%,100%,100%);fill-opacity:1;" d="M 43.820312 109.691406 C 43.207031 112.183594 43.054688 114.671875 43.511719 115.292969 C 43.972656 115.710938 44.738281 114.257812 45.347656 111.769531 C 45.960938 109.277344 46.113281 106.789062 45.65625 106.167969 C 45.195312 105.75 44.429688 107.203125 43.820312 109.691406 Z M 43.820312 109.691406 "/>
<path style=" stroke:none;fill-rule:nonzero;fill:rgb(100%,100%,100%);fill-opacity:1;" d="M 43.054688 138.738281 C 43.054688 140.394531 44.277344 143.714844 45.503906 145.996094 C 47.953125 149.941406 47.953125 149.941406 46.878906 144.960938 C 45.503906 138.527344 43.054688 134.585938 43.054688 138.738281 Z M 43.054688 138.738281 "/>
<path style=" stroke:none;fill-rule:nonzero;fill:rgb(100%,100%,100%);fill-opacity:1;" d="M 116.859375 15.09375 C 117.929688 16.753906 119.15625 17.582031 119.460938 17.375 C 120.226562 16.128906 117.929688 12.1875 116.398438 12.1875 C 115.632812 12.1875 115.785156 13.433594 116.859375 15.09375 Z M 116.859375 15.09375 "/>
<path style=" stroke:none;fill-rule:nonzero;fill:rgb(100%,100%,100%);fill-opacity:1;" d="M 128.035156 30.859375 C 127.578125 31.898438 127.882812 32.933594 128.648438 32.933594 C 129.566406 32.933594 130.332031 31.898438 130.332031 30.859375 C 130.332031 29.613281 130.027344 28.785156 129.722656 28.785156 C 129.261719 28.785156 128.496094 29.613281 128.035156 30.859375 Z M 128.035156 30.859375 "/>
<path style=" stroke:none;fill-rule:nonzero;fill:rgb(100%,100%,100%);fill-opacity:1;" d="M 137.683594 117.371094 C 139.0625 117.992188 139.519531 126.289062 139.519531 148.074219 C 139.519531 169.855469 139.0625 178.152344 137.683594 178.777344 C 136.609375 179.398438 138.753906 179.8125 142.582031 179.8125 C 146.410156 179.8125 148.554688 179.398438 147.636719 178.777344 C 146.105469 178.152344 145.644531 169.855469 145.644531 147.867188 C 145.644531 123.179688 146.105469 117.992188 147.789062 117.992188 C 151.15625 117.992188 154.832031 126.289062 154.832031 134.171875 C 154.832031 138.945312 153.609375 142.472656 150.851562 146 C 147.789062 149.941406 147.332031 151.183594 149.167969 151.183594 C 152.84375 151.183594 154.832031 157.824219 154.832031 169.855469 C 154.832031 181.679688 157.742188 185.414062 162.183594 179.398438 C 164.632812 176.078125 164.632812 175.871094 162.183594 177.324219 C 159.734375 178.363281 159.425781 177.324219 159.425781 167.988281 C 159.425781 160.105469 158.660156 156.371094 156.210938 153.050781 L 152.996094 148.695312 L 156.210938 145.792969 C 158.660156 143.300781 159.425781 140.398438 159.425781 133.550781 C 159.425781 121.3125 154.527344 115.917969 143.5 116.125 C 139.214844 116.125 136.609375 116.746094 137.683594 117.371094 Z M 137.683594 117.371094 "/>
<path style=" stroke:none;fill-rule:nonzero;fill:rgb(100%,100%,100%);fill-opacity:1;" d="M 166.777344 117.785156 C 172.59375 122.761719 179.179688 176.289062 174.433594 178.777344 C 173.359375 179.398438 175.199219 179.816406 178.566406 179.816406 C 181.933594 179.816406 183.773438 179.398438 182.855469 178.777344 C 177.496094 175.875 184.539062 125.460938 191.277344 118.40625 C 193.417969 116.125 193.265625 115.917969 189.898438 115.917969 C 187.140625 115.917969 186.222656 117.164062 186.070312 120.691406 C 185.917969 123.179688 184.539062 130.855469 183.160156 137.703125 L 180.402344 150.148438 L 177.496094 135.835938 C 175.960938 127.949219 174.890625 120.273438 175.351562 118.613281 C 175.960938 116.746094 174.585938 115.917969 170.449219 115.917969 C 166.773438 115.917969 165.550781 116.539062 166.773438 117.785156 Z M 166.777344 117.785156 "/>
<path style=" stroke:none;fill-rule:nonzero;fill:rgb(100%,100%,100%);fill-opacity:1;" d="M 198.933594 119.445312 C 192.960938 128.777344 194.644531 139.359375 203.984375 152.429688 C 208.425781 158.652344 210.261719 162.804688 210.261719 167.574219 C 210.570312 181.472656 201.230469 184.171875 197.09375 171.308594 L 194.949219 164.667969 L 194.796875 172.34375 C 194.644531 178.152344 195.105469 179.8125 196.789062 178.984375 C 198.011719 178.363281 199.390625 178.777344 200.003906 180.023438 C 201.535156 183.757812 208.273438 182.511719 211.488281 178.152344 C 213.628906 175.25 214.550781 171.308594 214.550781 164.878906 C 214.550781 156.992188 213.628906 154.296875 207.660156 145.375 C 202.144531 137.078125 200.769531 133.550781 200.769531 127.535156 C 200.769531 115.292969 208.117188 114.671875 212.558594 126.496094 C 214.394531 131.269531 214.550781 131.0625 214.550781 123.179688 C 214.550781 117.785156 214.089844 115.917969 213.171875 117.785156 C 212.25 119.652344 211.484375 119.859375 210.875 118.199219 C 209.1875 114.671875 201.53125 115.503906 198.929688 119.445312 L 198.929688 119.441406 Z M 198.933594 119.445312 "/>
<path style=" stroke:none;fill-rule:nonzero;fill:rgb(100%,100%,100%);fill-opacity:1;" d="M 219.296875 123.59375 C 219.449219 128.15625 219.910156 129.609375 220.214844 126.914062 C 220.980469 121.105469 224.65625 117.160156 227.566406 118.820312 C 229.402344 119.652344 229.863281 125.046875 229.863281 148.902344 C 229.863281 174.628906 229.554688 177.949219 227.257812 178.777344 C 225.726562 179.398438 227.566406 179.816406 231.394531 179.816406 C 235.222656 179.816406 237.363281 179.398438 236.445312 178.777344 C 234.914062 178.15625 234.457031 169.855469 234.457031 147.65625 C 234.457031 117.785156 234.457031 117.785156 237.976562 118.40625 C 240.425781 118.820312 241.5 120.6875 241.804688 124.835938 C 242.113281 127.949219 242.878906 130.023438 243.488281 129.609375 C 244.101562 128.988281 244.410156 125.667969 243.949219 122.140625 L 243.335938 115.917969 L 219.144531 115.917969 Z M 219.296875 123.59375 "/>
<path style=" stroke:none;fill-rule:nonzero;fill:rgb(100%,100%,100%);fill-opacity:1;" d="M 258.191406 121.3125 C 257.578125 124.628906 256.964844 128.570312 256.507812 130.023438 C 256.199219 131.476562 256.660156 134.175781 257.425781 136.25 C 259.875 142.472656 264.925781 177.117188 263.394531 177.738281 C 259.875 179.605469 262.628906 181.472656 267.53125 180.644531 C 270.59375 180.023438 272.429688 179.191406 271.511719 178.363281 C 270.746094 177.738281 267.835938 163.632812 265.234375 147.242188 C 262.476562 130.644531 260.027344 116.746094 259.722656 116.332031 C 259.414062 115.917969 258.648438 118.199219 258.191406 121.3125 Z M 258.191406 121.3125 "/>
<path style=" stroke:none;fill-rule:nonzero;fill:rgb(100%,100%,100%);fill-opacity:1;" d="M 277.023438 117.371094 C 278.402344 117.992188 278.863281 126.289062 278.863281 148.074219 C 278.863281 169.855469 278.402344 178.152344 277.023438 178.777344 C 275.953125 179.398438 279.628906 180.023438 285.140625 180.023438 C 294.480469 180.230469 295.398438 179.8125 296.316406 175.457031 C 297.542969 169.027344 297.390625 167.78125 295.703125 167.78125 C 294.9375 167.78125 294.171875 170.066406 294.171875 172.96875 C 294.171875 177.324219 293.40625 178.152344 289.582031 178.152344 L 284.988281 178.152344 L 284.988281 148.28125 C 284.988281 126.289062 285.445312 117.992188 286.976562 117.371094 C 287.894531 116.746094 285.753906 116.332031 281.925781 116.332031 C 278.097656 116.332031 275.953125 116.746094 277.023438 117.371094 Z M 277.023438 117.371094 "/>
<path style=" stroke:none;fill-rule:nonzero;fill:rgb(100%,100%,100%);fill-opacity:1;" d="M 313.773438 117.785156 C 315.304688 119.03125 315.609375 126.496094 315.304688 149.734375 L 314.847656 180.230469 L 321.738281 180.230469 C 325.5625 180.230469 330.3125 178.777344 332.148438 176.910156 C 335.363281 174.007812 335.519531 172.136719 335.519531 149.109375 C 335.519531 125.046875 335.363281 124.421875 331.535156 120.273438 C 328.628906 117.164062 325.257812 115.917969 319.59375 115.917969 C 314.847656 115.917969 312.550781 116.746094 313.773438 117.785156 Z M 328.167969 121.519531 C 330.464844 124.421875 330.921875 128.15625 330.921875 147.449219 C 330.921875 171.515625 329.546875 178.152344 324.796875 178.152344 C 321.890625 178.152344 321.734375 176.496094 321.734375 148.074219 C 321.734375 116.746094 322.347656 114.257812 328.167969 121.519531 Z M 328.167969 121.519531 "/>
<path style=" stroke:none;fill-rule:nonzero;fill:rgb(100%,100%,100%);fill-opacity:1;" d="M 344.398438 117.371094 C 346.695312 118.613281 347.15625 178.152344 344.703125 178.152344 C 343.9375 178.152344 343.171875 178.777344 343.171875 179.605469 C 343.171875 180.644531 347.613281 180.851562 353.125 180.644531 L 363.078125 179.8125 L 362.925781 173.382812 L 362.773438 166.746094 L 361.242188 172.34375 C 360.167969 176.910156 358.792969 178.152344 355.269531 178.152344 L 350.828125 178.152344 L 350.828125 163.632812 C 350.828125 152.015625 351.289062 149.109375 353.125 149.109375 C 354.503906 149.109375 356.035156 151.1875 356.800781 153.675781 C 357.871094 157.824219 358.179688 157.199219 358.636719 149.523438 C 359.097656 144.753906 358.792969 140.8125 358.179688 140.8125 C 357.414062 140.8125 356.953125 142.265625 356.953125 143.925781 C 356.953125 145.582031 355.578125 147.035156 353.890625 147.035156 C 351.136719 147.035156 350.828125 145.585938 350.828125 132.515625 C 350.828125 118.40625 350.984375 117.992188 354.65625 117.992188 C 357.71875 117.992188 359.097656 119.652344 360.78125 124.632812 L 362.925781 131.476562 L 363.078125 123.59375 L 363.078125 115.917969 L 352.820312 116.125 C 347 116.125 343.328125 116.746094 344.398438 117.371094 Z M 344.398438 117.371094 "/>
<path style=" stroke:none;fill-rule:nonzero;fill:rgb(100%,100%,100%);fill-opacity:1;" d="M 368.898438 117.371094 C 370.277344 117.992188 370.734375 126.289062 370.734375 148.074219 C 370.734375 169.855469 370.277344 178.152344 368.898438 178.777344 C 367.828125 179.398438 369.96875 180.023438 373.796875 180.023438 C 377.933594 180.023438 379.921875 179.398438 378.699219 178.363281 C 375.789062 175.875 375.789062 120.273438 378.699219 117.785156 C 379.921875 116.539062 378.085938 116.125 373.796875 116.125 C 369.96875 116.125 367.828125 116.746094 368.898438 117.371094 Z M 368.898438 117.371094 "/>
<path style=" stroke:none;fill-rule:nonzero;fill:rgb(100%,100%,100%);fill-opacity:1;" d="M 386.8125 117.992188 C 387.273438 119.03125 385.589844 125.460938 382.984375 132.308594 L 378.390625 144.753906 L 382.21875 160.726562 C 384.210938 169.648438 385.589844 177.53125 385.128906 178.570312 C 384.671875 179.398438 388.191406 180.230469 392.9375 180.230469 C 398.144531 180.230469 401.207031 179.398438 400.59375 178.152344 C 400.136719 177.117188 400.136719 172.96875 400.75 168.820312 C 401.515625 162.800781 402.433594 161.558594 405.800781 161.351562 C 409.476562 160.933594 409.628906 160.933594 406.261719 160.105469 C 402.890625 159.273438 402.738281 158.445312 403.503906 148.488281 C 404.269531 138.738281 403.964844 139.152344 401.359375 153.257812 C 399.675781 161.765625 398.453125 170.894531 398.296875 173.382812 C 398.296875 176.910156 397.378906 178.152344 394.777344 178.152344 C 391.5625 178.152344 390.640625 176.078125 386.8125 158.238281 L 382.527344 138.320312 L 385.4375 130.851562 C 386.96875 126.703125 389.570312 121.726562 391.101562 119.648438 C 393.550781 116.125 393.550781 115.917969 389.722656 115.917969 C 387.578125 115.917969 386.203125 116.746094 386.8125 117.992188 Z M 386.8125 117.992188 "/>
<path style=" stroke:none;fill-rule:nonzero;fill:rgb(100%,100%,100%);fill-opacity:1;" d="M 406.414062 124.214844 C 405.648438 129.402344 405.492188 133.964844 405.953125 134.589844 C 406.414062 135.210938 408.25 144.960938 410.085938 156.371094 C 412.230469 171.101562 412.691406 177.53125 411.617188 178.570312 C 408.863281 180.851562 411.007812 181.472656 417.4375 180.023438 C 420.804688 179.398438 422.492188 178.570312 421.113281 178.363281 C 419.277344 178.15625 417.746094 171.515625 414.527344 150.5625 C 409.015625 114.464844 408.25 112.183594 406.414062 124.214844 Z M 406.414062 124.214844 "/>
<path style=" stroke:none;fill-rule:nonzero;fill:rgb(100%,100%,100%);fill-opacity:1;" d="M 426.320312 118.199219 C 428.617188 120.066406 428.921875 123.800781 428.921875 149.109375 C 428.921875 170.0625 428.460938 178.152344 427.085938 178.777344 C 426.011719 179.398438 429.6875 180.019531 435.507812 180.019531 L 445.765625 180.226562 L 445.765625 174.003906 C 445.765625 170.476562 445.152344 167.78125 444.234375 167.78125 C 443.46875 167.78125 442.703125 170.0625 442.703125 172.96875 C 442.703125 177.324219 441.9375 178.152344 438.109375 178.152344 L 433.515625 178.152344 L 433.515625 148.28125 C 433.515625 126.289062 433.972656 117.992188 435.507812 117.367188 C 436.425781 116.746094 434.28125 116.125 430.453125 116.125 C 425.09375 116.125 424.175781 116.539062 426.320312 118.199219 Z M 426.320312 118.199219 "/>
<path style=" stroke:none;fill-rule:nonzero;fill:rgb(100%,100%,100%);fill-opacity:1;" d="M 450.054688 117.371094 C 451.429688 117.992188 451.890625 126.289062 451.890625 148.074219 C 451.890625 169.855469 451.429688 178.152344 450.054688 178.777344 C 448.980469 179.398438 452.351562 180.023438 457.554688 180.023438 C 465.976562 180.230469 467.355469 179.605469 470.113281 174.835938 C 475.472656 165.707031 473.941406 154.917969 466.742188 149.734375 C 464.140625 147.867188 464.140625 147.449219 467.816406 144.132812 C 471.03125 141.433594 471.796875 138.945312 471.796875 132.515625 C 471.796875 121.3125 466.589844 115.917969 455.871094 116.125 C 451.582031 116.125 448.980469 116.746094 450.050781 117.371094 Z M 464.753906 122.554688 C 469.5 131.683594 465.976562 147.035156 459.242188 147.035156 C 457.097656 147.035156 456.484375 146 457.097656 143.71875 C 457.554688 141.851562 458.015625 135.417969 458.015625 129.195312 C 458.015625 116.746094 460.464844 114.257812 464.753906 122.554688 Z M 465.363281 151.601562 C 467.816406 154.917969 467.816406 172.347656 465.363281 175.664062 C 464.292969 177.117188 462.300781 178.15625 460.925781 178.15625 C 458.78125 178.15625 458.167969 175.664062 457.707031 163.632812 C 457.25 150.148438 457.402344 149.113281 460.464844 149.113281 C 462.148438 149.113281 464.292969 150.148438 465.363281 151.601562 Z M 465.363281 151.601562 "/>
<path style=" stroke:none;fill-rule:nonzero;fill:rgb(100%,100%,100%);fill-opacity:1;" d="M 253.75 144.960938 C 253.136719 148.902344 251.910156 157.410156 250.992188 163.632812 C 250.074219 169.855469 248.390625 176.082031 247.164062 177.324219 C 245.480469 179.191406 245.789062 179.816406 249.003906 180.644531 C 251.148438 181.265625 252.832031 180.851562 252.832031 180.023438 C 252.832031 178.984375 252.21875 178.15625 251.453125 178.15625 C 250.839844 178.15625 250.992188 174.421875 251.757812 169.855469 C 253.136719 163.425781 254.207031 161.558594 257.273438 160.9375 L 261.253906 160.105469 L 257.117188 159.691406 C 253.289062 159.484375 253.136719 159.277344 254.515625 152.015625 C 255.433594 148.074219 255.894531 143.09375 255.433594 141.226562 C 255.128906 139.152344 254.515625 140.8125 253.75 144.960938 Z M 253.75 144.960938 "/>
</g>
</svg>
